<svg xmlns="http://www.w3.org/2000/svg" viewBox="0 0 500 500"><g id="freepik--background-complete--inject-34"><path d="M196.62,390.94c-1-6.46-6.47-11.5-12.56-13.86s-12.78-2.52-19.32-2.65L101,373.19,63.51,407a71.78,71.78,0,0,0,79.8,57.76c11-1.43,23-6.87,25.88-17.55,1.42-5.25.36-10.91,1.7-16.17,2-7.95,9-13.46,15-19S197.86,399.06,196.62,390.94Z" style="fill:#ebebeb"></path><path d="M253.89,402.1l-50,10.92c2.49,4.66,7.1,7.93,12.08,9.7s10.34,2.16,15.62,2.17A40.34,40.34,0,0,0,245,423.12c4.26-1.49,8.21-4.32,10.22-8.36S256.94,405.42,253.89,402.1Z" style="fill:#ebebeb"></path><path d="M307.36,386.34c-2.43,4.75,2.8,9.93,7.83,11.76s11.1,2.92,13.62,7.63c4.56,8.5-7.26,18.15-5.12,27.55,1.19,5.22,6.31,8.49,11.2,10.67a77.87,77.87,0,0,0,109.57-70.73Z" style="fill:#ebebeb"></path><polygon points="260.72 250.64 260.72 250.65 260.75 250.66 260.72 250.64" style="fill:#ebebeb"></polygon><polygon points="260.63 250.62 260.71 250.65 260.66 250.6 260.63 250.62" style="fill:#ebebeb"></polygon><polygon points="260.56 250.53 260.49 250.58 260.62 250.62 260.56 250.53" style="fill:#ebebeb"></polygon><polygon points="260.46 250.48 260.48 250.48 260.46 250.46 260.46 250.48" style="fill:#ebebeb"></polygon><polygon points="260.49 250.3 260.49 250.31 260.5 250.34 260.49 250.3" style="fill:#ebebeb"></polygon><polygon points="260.72 250.57 260.7 250.58 260.72 250.6 260.72 250.57" style="fill:#ebebeb"></polygon><polygon points="260.39 250.5 260.41 250.43 260.08 250.2 260.34 250.51 260.39 250.5" style="fill:#ebebeb"></polygon><polygon points="260.43 250.44 260.4 250.5 260.45 250.48 260.43 250.44" style="fill:#ebebeb"></polygon><polygon points="260.7 250.53 260.66 250.53 260.68 250.56 260.7 250.53" style="fill:#ebebeb"></polygon><polygon points="260.65 250.59 260.63 250.58 260.63 250.61 260.65 250.59" style="fill:#ebebeb"></polygon><path d="M297.32,32.3,278.77,141.93l.44.07L260.92,249.41l47-98,.22.1,47.1-98.39a231.11,231.11,0,0,0-58-20.83Z" style="fill:#ebebeb"></path><path d="M445.16,136.44a234,234,0,0,0-39.37-47.75L333.6,169.1l.19.18-72.92,81.06Z" style="fill:#ebebeb"></path><path d="M261.82,250.69l-.44-.14L481,256.08a237.4,237.4,0,0,0-10.1-62.75l-209.62,57.2-.35-.12.2-.12-.32.08h0l.28-.53-.33.36,0,.14-.15.06v-.11l-.09,0,.07-.13-.05-.42-.08.49,0,.05h0l-.17-.2.07.16-.34-.12L115.42,70.86a232.35,232.35,0,0,0-47.89,46.37L171,188.71h0l88.82,61.35-.38-.13.85.6h0l.05,0v0h.07v0h0v.06l.07-.05.06.09-.13,0,.05.08.07,0,0,0h.11v0l.05,0,0,0-.07,0,.34.31-.26-.32h0l0,0h0l0,0,0-.09h.5l-.45.13Zm-1.48-.17-.26-.32.33.23v.07Zm.06,0,0-.06,0,0Zm.06,0v0l0,0Zm0-.17h0v0Zm.22.22,0,0,0,0Zm-.07.05h0l0,0Zm0,0,0,0,0,.05Zm.07,0h0v0Zm.05.08h0Z" style="fill:#ebebeb"></path><path d="M218.2,149.22h0l42.2,100.92L248,141.17h0L234.93,27.7a228.44,228.44,0,0,0-62.16,13Z" style="fill:#ebebeb"></path><polygon points="260.62 250.86 260.6 250.85 260.61 250.87 260.62 250.86" style="fill:#ebebeb"></polygon><polygon points="260.44 250.59 260.41 250.61 260.38 250.57 260.37 250.66 260.38 250.65 260.38 250.66 260.45 250.66 260.42 250.62 260.46 250.6 260.47 250.61 260.47 250.59 260.49 250.58 260.39 250.54 260.44 250.59" style="fill:#ebebeb"></polygon><polygon points="260.32 250.65 260.37 250.56 260.35 250.53 259.87 250.64 260.32 250.65" style="fill:#ebebeb"></polygon><path d="M152.27,247.8l108,2.72L34.22,176.6c-1.66,4.33-3.23,8.72-4.65,13.2A238.25,238.25,0,0,0,19,244.32l133.31,3.5Z" style="fill:#ebebeb"></path><polygon points="260.69 250.7 260.66 250.71 260.67 250.74 260.69 250.7" style="fill:#ebebeb"></polygon><polygon points="260.32 250.96 260.18 251.78 260.52 251.06 260.49 250.77 260.32 250.96" style="fill:#ebebeb"></polygon><polygon points="260.64 250.72 260.63 250.72 260.65 250.73 260.64 250.72" style="fill:#ebebeb"></polygon><path d="M313.28,313.9c-34.61-29.57-87.82-35-127.72-13.12l-10.73,2.54c-6.44,4.09-4.83,14.93,1.43,19.29s14.73,3.7,22,1.52,14.27-5.7,21.84-6.61c15-1.8,29,6.78,41.48,15.26s25.93,17.61,41,17.08c10.39-.36,21.7-7.64,21.61-18C324.16,324.59,318.78,318.59,313.28,313.9Z" style="fill:#ebebeb"></path><path d="M419.46,302a6.45,6.45,0,0,0,.11-3.89,6.24,6.24,0,0,0-2-3.26,5.18,5.18,0,0,0-3.86-1.1,5.08,5.08,0,0,0-2.25.89,5.23,5.23,0,0,0-.6-2.12,5.13,5.13,0,0,0-3.15-2.47,6.23,6.23,0,0,0-3.81.31,6.43,6.43,0,0,0-3.08,2.38,8,8,0,0,0-1.33,4.77,11.2,11.2,0,0,0,1.8,5c1.55,2.49,3.64,5.68,3.64,5.68s3.44-.59,6.37-.8a11.17,11.17,0,0,0,5.06-1.47A7.88,7.88,0,0,0,419.46,302Z" style="fill:#f5f5f5"></path><path d="M465.48,327.89a10.67,10.67,0,0,0-1.28-6.27,10.17,10.17,0,0,0-4.4-4.45,8.25,8.25,0,0,0-9.84,2,8.24,8.24,0,0,0-1.75-3.17,8.4,8.4,0,0,0-6-2.77,10.27,10.27,0,0,0-6,1.92,10.71,10.71,0,0,0-4,5,12.9,12.9,0,0,0-.33,8.12,18.31,18.31,0,0,0,4.72,7.25c3.42,3.4,8,7.72,8,7.72s5.27-2.24,9.87-3.68a18.35,18.35,0,0,0,7.55-4.24A13,13,0,0,0,465.48,327.89Z" style="fill:#f5f5f5"></path><path d="M407.28,37.13a6.57,6.57,0,0,0,.12-3.9,6.19,6.19,0,0,0-2-3.25,5.1,5.1,0,0,0-3.85-1.1,5.16,5.16,0,0,0-2.26.89,4.93,4.93,0,0,0-.6-2.12,5.09,5.09,0,0,0-3.15-2.48,6.27,6.27,0,0,0-3.8.31,6.54,6.54,0,0,0-3.09,2.39,7.85,7.85,0,0,0-1.32,4.77,11.1,11.1,0,0,0,1.79,5c1.55,2.49,3.64,5.68,3.64,5.68s3.44-.6,6.37-.81A11.15,11.15,0,0,0,404.2,41,8,8,0,0,0,407.28,37.13Z" style="fill:#f5f5f5"></path><path d="M85.34,303.56a12,12,0,0,0-4.74-5.38,11.52,11.52,0,0,0-6.77-1.87,9.26,9.26,0,0,0-8.47,7.42,9.3,9.3,0,0,0-3.47-2.1,9.46,9.46,0,0,0-7.35.65,11.56,11.56,0,0,0-4.72,5.2,11.91,11.91,0,0,0-1.13,7.08,14.5,14.5,0,0,0,4.22,8.08,20.46,20.46,0,0,0,8.65,4.4c5.22,1.39,12,3,12,3s3.88-5.13,7.54-9.1a20.47,20.47,0,0,0,5-8.34A14.48,14.48,0,0,0,85.34,303.56Z" style="fill:#f5f5f5"></path><path d="M265.29,444.8a11.89,11.89,0,0,0-4.75-5.37,11.45,11.45,0,0,0-6.77-1.87,9.21,9.21,0,0,0-8.46,7.41,9.26,9.26,0,0,0-10.83-1.45,11.48,11.48,0,0,0-4.71,5.2,11.91,11.91,0,0,0-1.14,7.08,14.56,14.56,0,0,0,4.22,8.09,20.69,20.69,0,0,0,8.65,4.4c5.22,1.38,12,3,12,3s3.88-5.13,7.55-9.1a20.55,20.55,0,0,0,5-8.34A14.56,14.56,0,0,0,265.29,444.8Z" style="fill:#f5f5f5"></path><path d="M287.19,429.65a6.09,6.09,0,0,0-1.66-3.3,5.79,5.79,0,0,0-3.12-1.82,4.82,4.82,0,0,0-3.7.81,4.88,4.88,0,0,0-1.49,1.76A4.73,4.73,0,0,0,272,425a6,6,0,0,0-3,2,6.23,6.23,0,0,0-1.5,3.38,7.49,7.49,0,0,0,1,4.58,10.55,10.55,0,0,0,3.72,3.33c2.42,1.38,5.59,3.1,5.59,3.1s2.61-2,5-3.53a10.55,10.55,0,0,0,3.56-3.5A7.48,7.48,0,0,0,287.19,429.65Z" style="fill:#f5f5f5"></path><path d="M301,461.24a7.14,7.14,0,0,0-.3-4.33,6.93,6.93,0,0,0-2.56-3.39,5.61,5.61,0,0,0-6.79.44,5.6,5.6,0,0,0-4.66-4.68,6.91,6.91,0,0,0-4.18.76,7.17,7.17,0,0,0-3.16,3,8.77,8.77,0,0,0-.95,5.43,12.41,12.41,0,0,0,2.53,5.3c2,2.59,4.66,5.9,4.66,5.9s3.75-1,7-1.59a12.35,12.35,0,0,0,5.45-2.18A8.76,8.76,0,0,0,301,461.24Z" style="fill:#f5f5f5"></path><path d="M454.65,42.94a12,12,0,0,0-4.75-5.38,11.4,11.4,0,0,0-6.77-1.86,9.24,9.24,0,0,0-8.46,7.41,9.34,9.34,0,0,0-3.48-2.1,9.43,9.43,0,0,0-7.34.65,11.56,11.56,0,0,0-4.72,5.2A12,12,0,0,0,418,53.94,14.52,14.52,0,0,0,422.22,62a20.48,20.48,0,0,0,8.65,4.41c5.22,1.38,12,3,12,3s3.87-5.13,7.54-9.1a20.69,20.69,0,0,0,5-8.34A14.63,14.63,0,0,0,454.65,42.94Z" style="fill:#f5f5f5"></path><path d="M79.49,52.28a11.94,11.94,0,0,0-4.75-5.37A11.5,11.5,0,0,0,68,45a9.27,9.27,0,0,0-8.46,7.41A9.27,9.27,0,0,0,48.69,51,11.4,11.4,0,0,0,44,56.21a12,12,0,0,0-1.14,7.08,14.49,14.49,0,0,0,4.23,8.08,20.59,20.59,0,0,0,8.64,4.4c5.22,1.39,12,3,12,3s3.87-5.14,7.54-9.1a20.52,20.52,0,0,0,4.95-8.35A14.56,14.56,0,0,0,79.49,52.28Z" style="fill:#f5f5f5"></path></g><g id="freepik--Floor--inject-34"><path d="M489.66,262.06c0,.14-107.31.26-239.65.26s-239.67-.12-239.67-.26,107.28-.26,239.67-.26S489.66,261.92,489.66,262.06Z" style="fill:#263238"></path></g><g id="freepik--fortune-cookie-3--inject-34"><path d="M303.25,385s-4.68-3.23,5.39-12.94S355,322.46,383.78,325s32.06,20.2,46.52,28.5,18.29,11.23,18.18,21c-.12,11.6-11.74,36.67-43.62,48.66-25.33,9.52-57.68,12.91-60.63,2.84-3.36-11.47,7.89-31.13,7.89-31.13C356.49,389.61,310.64,399.75,303.25,385Z" style="fill:#FF725E"></path><path d="M437.78,398.39a1.44,1.44,0,0,1-.18.19l-.56.53-2.19,2a104.36,104.36,0,0,1-8.53,6.77,90.24,90.24,0,0,1-14,8.07,79.51,79.51,0,0,1-18.87,5.91,99,99,0,0,1-35.8-.33,26.53,26.53,0,0,0-6.1-.73,17.23,17.23,0,0,0-4.56.83,11.61,11.61,0,0,0-3.41,2,5.41,5.41,0,0,1,.76-.7,9.4,9.4,0,0,1,2.58-1.47,16.49,16.49,0,0,1,4.61-.93,26.13,26.13,0,0,1,6.19.66,101.14,101.14,0,0,0,35.63.18,80.67,80.67,0,0,0,18.77-5.83,94,94,0,0,0,14-7.94c3.75-2.64,6.65-5,8.61-6.62L437,399l.59-.49C437.7,398.43,437.77,398.38,437.78,398.39Z" style="fill:#263238"></path><path d="M361.85,362.93a1.77,1.77,0,0,1,0-.57,3.57,3.57,0,0,1,.68-1.5,4.53,4.53,0,0,1,2.1-1.52,3.84,3.84,0,0,1,3.41.29,2,2,0,0,1,.74.75,1.67,1.67,0,0,1,.1,1.12c-.21.71-.52,1.32-.79,2-.59,1.37-1.25,2.8-2,4.31-1.44,3-3.1,6.26-4.87,9.67-3.52,6.79-6.71,12.92-9.06,17.45-1.11,2.19-2,4-2.68,5.32l-.73,1.45a4.15,4.15,0,0,1-.28.49,2.19,2.19,0,0,1,.19-.54l.64-1.49c.57-1.29,1.43-3.13,2.53-5.4,2.19-4.53,5.39-10.7,8.93-17.52,1.76-3.41,3.44-6.66,4.9-9.64.72-1.5,1.4-2.92,2-4.27.27-.67.61-1.35.8-2a1.27,1.27,0,0,0-.65-1.47,3.61,3.61,0,0,0-3.12-.32,4.37,4.37,0,0,0-2,1.38A4.09,4.09,0,0,0,361.85,362.93Z" style="fill:#263238"></path><g style="opacity:0.2"><path d="M376.66,406c11.15-4.52,22.19-10,30.58-18.66,7.52-7.72,12.65-18.35,12.14-29a2.33,2.33,0,0,1,3.19-2.31,34.79,34.79,0,0,1,9,5c3.69,3,6.47,7.47,6.16,12.2-.33,4.95-3.86,9.07-7.55,12.39-14.37,13-33.65,19.79-53,21"></path></g><g style="opacity:0.30000000000000004"><path d="M365.82,359.13a7.77,7.77,0,0,0-3.64,2.05c-8.86,10-16.38,21-23.61,32.2,6.06-.21,12.85-.67,13.77.64a340.59,340.59,0,0,0,15.91-31.88,3.24,3.24,0,0,0,.36-1.28C368.59,359.6,367,358.83,365.82,359.13Z"></path></g><g style="opacity:0.30000000000000004"><path d="M428.46,409.84a5.32,5.32,0,0,1-.65.49l-1.93,1.33-1.4.95c-.52.34-1.1.67-1.72,1.05-1.24.74-2.63,1.63-4.25,2.45L416,417.46c-.88.46-1.83.87-2.8,1.33-1.92.95-4.05,1.79-6.28,2.7a102.1,102.1,0,0,1-30.47,6.76c-2.41.12-4.69.26-6.83.21-1.07,0-2.11,0-3.1,0l-2.86-.15c-1.82-.06-3.45-.29-4.89-.43-.72-.08-1.39-.14-2-.22l-1.67-.27-2.31-.39a4.08,4.08,0,0,1-.8-.17,4.92,4.92,0,0,1,.82.07l2.32.29,1.67.22c.62.07,1.29.12,2,.18,1.44.12,3.07.31,4.88.35l2.85.11c1,0,2,0,3.08,0,2.14,0,4.41-.13,6.8-.25a117.17,117.17,0,0,0,15.42-2.25A115.14,115.14,0,0,0,406.74,421c2.22-.89,4.35-1.71,6.27-2.64,1-.45,1.92-.85,2.8-1.3l2.53-1.31c1.63-.8,3-1.67,4.27-2.38.63-.36,1.21-.69,1.74-1l1.42-.91,2-1.25A4.13,4.13,0,0,1,428.46,409.84Z"></path></g><g style="opacity:0.30000000000000004"><path d="M371.93,365.87h0c-6.12,12.47-11.39,23.78-17.51,36.25-.5,1-1,2.31-.3,3.21a2.15,2.15,0,0,0,2.8.27,6.17,6.17,0,0,0,1.89-2.41c5.56-10.24,11.61-20.56,16.1-31.31C376.63,367.76,375.09,363.87,371.93,365.87Z" style="fill:#fff"></path></g><g style="opacity:0.30000000000000004"><path d="M370.78,335.55c-.4-1.05-1.91-1-3-.65-12.27,3.64-22.72,11.65-32.65,19.73q-11.2,9.11-22.07,18.61c1.4,3.59,8.09,0,13-3a223.17,223.17,0,0,0,19.55-14L369.48,338C370.25,337.35,371.12,336.46,370.78,335.55Z" style="fill:#fff"></path></g><path d="M430.82,383.48a17.72,17.72,0,0,0,2.63-2.33,14,14,0,0,0,3.26-8.78,12.47,12.47,0,0,0-6.7-11.58c-2.28-1.38-4.92-2.42-7.55-3.75a41.67,41.67,0,0,1-7.58-5.08c-4.8-4-8.76-8.46-12.75-12.06A42.46,42.46,0,0,0,390.36,332a23.17,23.17,0,0,0-9.32-2c-2.27.05-3.49.4-3.51.32l.23-.06.66-.15a16.68,16.68,0,0,1,2.62-.32,22.67,22.67,0,0,1,9.46,1.86,42,42,0,0,1,11.95,7.91c4,3.6,8,8,12.77,12a40.89,40.89,0,0,0,7.47,5c2.6,1.32,5.25,2.38,7.57,3.8a13.62,13.62,0,0,1,3.34,20.9,7.64,7.64,0,0,1-1.1,1.06l-.47.39-.42.28-.58.36Z" style="fill:#fff"></path></g><g id="freepik--fortune-cookie-2--inject-34"><path d="M341.11,202.11A106.94,106.94,0,0,0,363.29,173c5.9-11,10.31-23.09,11.72-35.56a56.84,56.84,0,0,0-.92-19.29c-.18-.79-1.38-.45-1.2.33,2.68,11.48.92,23.62-2.56,34.73a115.34,115.34,0,0,1-16.94,33.23,95.61,95.61,0,0,1-13.17,14.75c-.6.54.29,1.42.89.89Z" style="fill:#263238"></path><path d="M172,186.33a43,43,0,0,1-10.47-9.53A65.71,65.71,0,0,1,153,163.56a46.17,46.17,0,0,1-4-13.14c-.87-5.53-1.74-11.08-2.13-16.67-.43-6.2-.37-12.57,1.43-18.56.24-.77-1-1.1-1.2-.33-3.29,10.88-1.35,22.85.37,33.85a71.14,71.14,0,0,0,1.31,7.23,44.42,44.42,0,0,0,2.38,6.6,65,65,0,0,0,8.27,13.67,45.78,45.78,0,0,0,11.9,11.2.63.63,0,0,0,.63-1.08Z" style="fill:#263238"></path><path d="M379.26,83.67S314,68.91,273.32,74.41c-33.71,4.54-28.74,10.86-55.57,17.1-21.89,5.1-73.45-.58-73.45-.58L140,137.86s46.94,2.47,73.89,1.43c34.93-1.34,40-18.72,69.05-19.68,34.2-1.13,87.34,7.93,87.34,7.93Z" style="fill:#fafafa"></path><path d="M379.26,83.67s0,.24-.14.73-.24,1.22-.43,2.18c-.39,1.94-1,4.8-1.71,8.53-1.52,7.49-3.74,18.48-6.57,32.46l0,.13-.14,0c-12.13-2-26.61-4-43.08-5.7-8.24-.82-17-1.55-26.16-2-2.29-.09-4.62-.21-7-.23s-4.73-.09-7.13,0l-3.62.06c-1.21,0-2.42.16-3.65.24l-1.83.13-1.83.27-1.84.28a14.36,14.36,0,0,0-1.83.34A62.29,62.29,0,0,0,257.9,126c-4.71,2.18-9.35,4.74-14.28,6.9a81.38,81.38,0,0,1-32.37,6.72c-11.37.33-23,.16-34.93-.13s-24-.76-36.34-1.37h-.27l0-.27.32-3.47c1.36-14.89,2.7-29.5,4-43.46l0-.26.26,0c8.41.88,16.73,1.53,24.91,2s16.23.74,24.12.69,15.64-.4,23-1.84a95.54,95.54,0,0,0,21-6.81c3.25-1.5,6.43-3.11,9.69-4.39a74.54,74.54,0,0,1,9.86-3.13c1.64-.45,3.3-.74,4.93-1.11s3.27-.6,4.89-.89c3.24-.5,6.43-1,9.59-1.3a209,209,0,0,1,35.11-.25c10.68.73,20.26,1.81,28.62,3s15.51,2.34,21.32,3.41,10.29,2,13.31,2.59l3.44.75c.77.17,1.16.28,1.16.28l-4.62-.93c-3-.62-7.51-1.48-13.32-2.51s-13-2.17-21.33-3.32-17.94-2.22-28.6-2.92a209.59,209.59,0,0,0-35,.31c-3.15.27-6.34.81-9.57,1.31-1.61.3-3.25.56-4.88.89s-3.28.67-4.91,1.11a74.76,74.76,0,0,0-9.8,3.13c-3.24,1.28-6.4,2.88-9.66,4.39a95.86,95.86,0,0,1-21,6.86,129.29,129.29,0,0,1-23.13,1.87c-7.9.06-16-.21-24.15-.67s-16.51-1.12-24.94-2l.28-.23c-1.27,14-2.61,28.57-4,43.46-.1,1.19-.21,2.37-.31,3.47l-.25-.29q18.47.92,36.33,1.38c11.88.28,23.54.46,34.9.14a81,81,0,0,0,32.19-6.66c4.91-2.14,9.54-4.7,14.27-6.88a63.06,63.06,0,0,1,14.52-4.94c.61-.15,1.22-.25,1.84-.34l1.86-.27,1.84-.27,1.85-.13c1.23-.08,2.45-.19,3.67-.24l3.63,0c2.4-.07,4.79,0,7.14,0s4.68.13,7,.23c9.2.41,17.94,1.16,26.18,2,16.47,1.7,31,3.79,43.09,5.79l-.16.11c2.89-13.93,5.15-24.88,6.7-32.35.78-3.74,1.38-6.6,1.79-8.54.2-1,.36-1.7.46-2.2S379.26,83.67,379.26,83.67Z" style="fill:#263238"></path><path d="M375.58,114a5.3,5.3,0,0,0-.08-5,5.29,5.29,0,0,0-8.79-.62,2,2,0,0,0-.42,2.12,1.74,1.74,0,0,0,1.39.77,7.07,7.07,0,0,0,1.65-.18,4.91,4.91,0,0,1,1.87,0,2.2,2.2,0,0,1,1.51,1,5.8,5.8,0,0,1,.43,1.66,1.49,1.49,0,0,0,1.07,1.23,1.23,1.23,0,0,0,1.06-.5,3.54,3.54,0,0,0,.52-1.09" style="fill:#263238"></path><path d="M375.24,118a5.28,5.28,0,0,0-10.17-2.66,2.06,2.06,0,0,0,.25,2.16,1.71,1.71,0,0,0,1.56.31,7.1,7.1,0,0,0,1.52-.67,5.18,5.18,0,0,1,1.77-.61,2.23,2.23,0,0,1,1.75.52,6.51,6.51,0,0,1,.92,1.47,1.49,1.49,0,0,0,1.39.85,1.23,1.23,0,0,0,.86-.8,3.76,3.76,0,0,0,.16-1.21" style="fill:#263238"></path><path d="M376.45,110.71a5.28,5.28,0,0,0-6.47-8.29,2,2,0,0,0-1.11,1.87,1.71,1.71,0,0,0,1.05,1.2,6.75,6.75,0,0,0,1.61.38,5.07,5.07,0,0,1,1.78.6,2.25,2.25,0,0,1,1.08,1.47,6.28,6.28,0,0,1-.17,1.72,1.49,1.49,0,0,0,.59,1.52,1.23,1.23,0,0,0,1.17-.11,3.51,3.51,0,0,0,.86-.86" style="fill:#263238"></path><path d="M139.56,118.71a5.27,5.27,0,0,1,1.53-4.73,5.29,5.29,0,0,1,8.59,2,2,2,0,0,1-.22,2.15,1.73,1.73,0,0,1-1.56.33,7.25,7.25,0,0,1-1.52-.65,4.91,4.91,0,0,0-1.78-.58,2.21,2.21,0,0,0-1.74.53,6.44,6.44,0,0,0-.9,1.47,1.48,1.48,0,0,1-1.37.86,1.2,1.2,0,0,1-.87-.78,3.72,3.72,0,0,1-.19-1.2" style="fill:#263238"></path><path d="M139.16,121.91a5.27,5.27,0,0,1,10.5.41,2,2,0,0,1-.87,2,1.69,1.69,0,0,1-1.58-.15,7.2,7.2,0,0,1-1.26-1.08,4.81,4.81,0,0,0-1.51-1.1,2.24,2.24,0,0,0-1.83,0,6.32,6.32,0,0,0-1.3,1.13,1.47,1.47,0,0,1-1.58.41,1.19,1.19,0,0,1-.59-1,3.51,3.51,0,0,1,.19-1.2" style="fill:#263238"></path><path d="M140.76,114.33a5.27,5.27,0,0,1,8.6-6,2,2,0,0,1,.52,2.11,1.75,1.75,0,0,1-1.35.84,7.13,7.13,0,0,1-1.66-.1,4.9,4.9,0,0,0-1.87,0,2.23,2.23,0,0,0-1.46,1.09,6.42,6.42,0,0,0-.35,1.7c-.11.56-.43,1.18-1,1.28a1.23,1.23,0,0,1-1.09-.45,3.44,3.44,0,0,1-.57-1.07" style="fill:#263238"></path><path d="M271.59,145C173.7,135.62,151,227,153.13,266.77c1.47,27.53,12.08,44.09,18.47,51.67A11.49,11.49,0,0,0,183,322.15c52-12.21,67.09-72.51,67.09-72.51,8.47,79.89,67.33,87.59,67.33,87.59s36.7-26.94,47.29-66.29S369.47,154.33,271.59,145Z" style="fill:#FF725E"></path><g style="opacity:0.30000000000000004"><path d="M336.8,299.05c-6.05,9.05-10.86,14-16.22,21.3-1.22,1.66-3.63,3.36-3,5.31s2.88,3.12,4.76,1.16c19.36-23.07,32.16-50.15,32.51-69.39A126.51,126.51,0,0,1,336.8,299.05Z"></path></g><path d="M230.84,181c-.55-2-2.15-4.56-5.17-4.43h.16a6.59,6.59,0,0,0-5.56,2.67,5.94,5.94,0,0,0-.46,5.79,5.66,5.66,0,0,0,3.29,2.68,6.29,6.29,0,0,0,5.9-1.08A5.64,5.64,0,0,0,230.84,181Z" style="fill:#263238"></path><path d="M283,183.24c-.55-2-2.15-4.55-5.16-4.43H278a6.57,6.57,0,0,0-5.56,2.67,5.9,5.9,0,0,0-.45,5.78,5.64,5.64,0,0,0,3.28,2.68,6.29,6.29,0,0,0,5.9-1.07A5.63,5.63,0,0,0,283,183.24Z" style="fill:#263238"></path><path d="M408.37,219.9a35.16,35.16,0,0,1-19.91,20.63,36.83,36.83,0,0,1-29.33-1.33c-2,23.48-4.06,26.4-8.06,39.08,10.89,5.26,24,5.07,35.88,2.77s23-7.75,32.87-14.74A102.87,102.87,0,0,0,408.37,219.9Z" style="fill:#f5f5f5"></path><path d="M408.37,219.9c.08.15.19.35.4.76s.7,1.28,1.19,2.3c1,2,2.35,5,3.8,9A102.66,102.66,0,0,1,420,266.31v.11l-.09.07A90.43,90.43,0,0,1,394,279.55a79.76,79.76,0,0,1-15.9,3,61.19,61.19,0,0,1-17-.72A42.9,42.9,0,0,1,351,278.52l-.2-.1.07-.21,3.3-10.13a83.24,83.24,0,0,0,2.45-9.94c1.2-6.58,1.79-13,2.33-19l0-.34.31.16a35,35,0,0,0,12.13,3.53,38.25,38.25,0,0,0,11.45-.53,34.2,34.2,0,0,0,16.45-8.53,35.63,35.63,0,0,0,7.32-9.63c.65-1.25,1.08-2.23,1.36-2.93s.35-.82.42-1c-.06.2-.16.48-.37,1.06a27.36,27.36,0,0,1-1.28,2.94,34.87,34.87,0,0,1-7.26,9.76,34.29,34.29,0,0,1-16.57,8.71,38,38,0,0,1-11.57.58,35.47,35.47,0,0,1-12.3-3.54l.34-.19c-.53,6-1.1,12.4-2.29,19a84.55,84.55,0,0,1-2.46,10l-3.3,10.13-.13-.31a42.72,42.72,0,0,0,10.05,3.28,60.85,60.85,0,0,0,16.83.72,80.28,80.28,0,0,0,15.81-3,90.88,90.88,0,0,0,25.82-12.94l-.09.17A104,104,0,0,0,413.53,232c-1.42-4-2.75-7-3.69-9C409,221.14,408.55,220.27,408.37,219.9Z" style="fill:#263238"></path><path d="M345,257.54a1.09,1.09,0,0,1,0,.24c0,.19,0,.42-.07.71l-.33,2.7a56.79,56.79,0,0,1-2.47,9.68,78.16,78.16,0,0,1-6.45,13.35A118.76,118.76,0,0,1,325,298.94c-2,2.48-4.16,4.82-6.07,7.16-.92,1.15-1.69,2.46-2.52,3.65s-1.63,2.39-2.37,3.56a28.25,28.25,0,0,0-3.48,7,18.33,18.33,0,0,0-.62,6.75,13.15,13.15,0,0,0,1.58,5.35,10,10,0,0,0,2.78,3.16,9.25,9.25,0,0,0,3.28,1.51,3.93,3.93,0,0,1-.94-.17,8,8,0,0,1-2.46-1.18,10.12,10.12,0,0,1-2.91-3.18,13.3,13.3,0,0,1-1.69-5.46,19.35,19.35,0,0,1-.05-3.33,14.68,14.68,0,0,1,.61-3.57,29.13,29.13,0,0,1,3.49-7.15c.75-1.18,1.55-2.37,2.37-3.57s1.57-2.48,2.53-3.7c1.93-2.37,4-4.7,6.07-7.17A122.53,122.53,0,0,0,335.25,284a81.72,81.72,0,0,0,6.52-13.22,63.18,63.18,0,0,0,2.61-9.6q.27-1.69.42-2.67c.05-.28.09-.51.13-.7A.81.81,0,0,1,345,257.54Z" style="fill:#263238"></path><path d="M279.13,147.73l.61,0,1.77.11c.77.07,1.74.09,2.87.23l3.91.53a79.75,79.75,0,0,1,23.69,8,86,86,0,0,1,28.33,23.78,88,88,0,0,1,11,19,98.75,98.75,0,0,1,3.9,11,103.57,103.57,0,0,1,2.56,11.71,104.65,104.65,0,0,1-2.91,45.19,146.11,146.11,0,0,1-14.5,34.2,136.23,136.23,0,0,1-7.87,11.94c-1.29,1.66-2.48,3.21-3.64,4.6s-2.23,2.63-3.24,3.72l-2.72,2.85c-.79.81-1.52,1.45-2.08,2l-1.3,1.2-.46.4.42-.44,1.27-1.24c.55-.55,1.26-1.2,2-2l2.68-2.88c1-1.09,2-2.37,3.2-3.74s2.32-2.95,3.6-4.62A136.86,136.86,0,0,0,340,301.3a147.22,147.22,0,0,0,14.36-34.14,112,112,0,0,0,3.83-21.54,108.5,108.5,0,0,0,.22-11.58,104.87,104.87,0,0,0-1.19-11.87,102.52,102.52,0,0,0-2.55-11.65,99.69,99.69,0,0,0-3.87-10.91,87.93,87.93,0,0,0-10.91-18.92A86.06,86.06,0,0,0,311.81,157a80.29,80.29,0,0,0-23.56-8.13l-3.89-.58c-1.12-.16-2.09-.19-2.86-.27l-1.77-.16C279.33,147.77,279.13,147.73,279.13,147.73Z" style="fill:#263238"></path><g style="opacity:0.30000000000000004"><path d="M264.4,184.55c1.52,1,1.94,3.73.05,7s-6.2,6.83-12.15,7.66a17.05,17.05,0,0,1-8.6-.9,12.34,12.34,0,0,1-6.06-4.83,7.16,7.16,0,0,1-1.15-5.15,2.76,2.76,0,0,1,2-2.25,7.67,7.67,0,0,1,2.82.07,19.52,19.52,0,0,0,2.82.24,21.13,21.13,0,0,0,2.7-.21c1-.11,2.16-.22,3.55-.42,2.71-.37,5.36-1,7.78-1.48S262.83,183.49,264.4,184.55Z"></path></g><path d="M227.13,198.54a26.79,26.79,0,0,0-2-3.91,15.28,15.28,0,0,0-18.57-5.82,26,26,0,0,0-3.87,2.07,4.37,4.37,0,0,1,.9-.79,13.49,13.49,0,0,1,2.83-1.62,15.17,15.17,0,0,1,19,6,13.77,13.77,0,0,1,1.4,2.95A4.76,4.76,0,0,1,227.13,198.54Z" style="fill:#263238"></path><path d="M295.89,189c0,.09-1.41-.34-3.72-.45a18,18,0,0,0-15.54,7.41c-1.36,1.86-1.9,3.22-2,3.18a3.49,3.49,0,0,1,.34-1,15.3,15.3,0,0,1,1.35-2.42,17.36,17.36,0,0,1,15.86-7.57,14.88,14.88,0,0,1,2.74.47A3.45,3.45,0,0,1,295.89,189Z" style="fill:#263238"></path><g style="opacity:0.30000000000000004"><path d="M294.07,194.68a3,3,0,0,0-2.7-1.93h0a15.32,15.32,0,0,0-11.52,5.62c-.82,1-1.52,2.47-.82,3.58s2.09,1.14,3.29,1c3.07-.47,5.84-2.05,8.52-3.61a9.07,9.07,0,0,0,2.43-1.81A3.18,3.18,0,0,0,294.07,194.68Z" style="fill:#fff"></path></g><g style="opacity:0.30000000000000004"><path d="M222.82,194.82a15.31,15.31,0,0,0-11.55-5.55c-1.31,0-2.88.34-3.32,1.57s.41,2.35,1.3,3.18c2.27,2.11,5.23,3.31,8.12,4.44a9.1,9.1,0,0,0,2.92.78,3.17,3.17,0,0,0,2.69-1.11A3.23,3.23,0,0,0,222.82,194.82Z" style="fill:#fff"></path></g><path d="M259.74,288a3.61,3.61,0,0,1-.39-.68c-.26-.45-.57-1.13-1-2a69,69,0,0,1-2.71-7.8c-1-3.34-2-7.37-2.95-11.87-.48-2.24-1-4.6-1.43-7.08s-.76-5-1.09-7.68-.63-5.21-1-7.68-.8-4.85-1.17-7.12-.73-4.42-1.06-6.44a14.47,14.47,0,0,0-1.67-5.32,5.15,5.15,0,0,0-1.68-1.67,4.49,4.49,0,0,0-2-.61,4.44,4.44,0,0,0-3.19,1.06,4.92,4.92,0,0,0-1.29,1.76c-.2.47-.25.74-.27.73s0-.07,0-.2a4.1,4.1,0,0,1,.15-.57,4.71,4.71,0,0,1,1.25-1.87,4.61,4.61,0,0,1,3.34-1.2,4.73,4.73,0,0,1,2.18.61,5.48,5.48,0,0,1,1.83,1.76,14.66,14.66,0,0,1,1.79,5.45q.51,3,1.1,6.44c.38,2.27.79,4.65,1.2,7.12s.66,5,1,7.69.67,5.19,1.08,7.66.92,4.81,1.39,7.06c.95,4.5,1.9,8.53,2.83,11.87a78.76,78.76,0,0,0,2.55,7.82c.37.9.65,1.6.87,2.06A5.21,5.21,0,0,1,259.74,288Z" style="fill:#263238"></path><g style="opacity:0.30000000000000004"><path d="M250,250a126.63,126.63,0,0,1-4.52,13.54c-5.56,13.63-8,16.07-12.64,22.75A69.88,69.88,0,0,0,237,260.58c-.19-8.59-1.3-17.13-1.85-25.7a22.31,22.31,0,0,1,.38-7.34A8.15,8.15,0,0,1,240,222s5.28-1.62,6.92,6.11S250,250,250,250Z"></path></g><path d="M258,250.16a2.09,2.09,0,0,1-.18-.48c-.11-.31-.25-.79-.4-1.41a46.16,46.16,0,0,1-1-5.31c-.32-2.25-.56-5-1-7.92a35.5,35.5,0,0,0-2.46-9.36,17.53,17.53,0,0,0-6-7.42,12.13,12.13,0,0,0-3.8-1.72,11.14,11.14,0,0,0-3.62-.28,9.89,9.89,0,0,0-4.94,1.77c-1,.74-1.44,1.32-1.49,1.28a1.91,1.91,0,0,1,.31-.42,4,4,0,0,1,.42-.46,5.43,5.43,0,0,1,.64-.56,9.66,9.66,0,0,1,5-2,11.35,11.35,0,0,1,3.76.22,12.12,12.12,0,0,1,4,1.74,17.69,17.69,0,0,1,6.17,7.61,35.05,35.05,0,0,1,2.47,9.5c.4,3,.61,5.69.87,7.95s.56,4.06.81,5.31S258.05,250.15,258,250.16Z" style="fill:#fff"></path><path d="M399.18,250.26c-2-3.15-6.73-3.91-10-2.07s-5.07,5.71-5.08,9.47a15.63,15.63,0,0,0-3.86-4.82,6.77,6.77,0,0,0-5.83-1.36c-2.86.84-4.48,4.16-4.16,7.14s2.16,5.57,4.3,7.67a26.94,26.94,0,0,0,13,7l.79-.44A38.72,38.72,0,0,0,398,261.7C400,258.19,401.37,253.65,399.18,250.26Z" style="fill:#FF725E"></path><g style="opacity:0.30000000000000004"><path d="M171.26,279.38a88,88,0,0,1-.87-47.45c1.29-4.92,3-10,2.57-15a2.8,2.8,0,0,0-3.41-2.5h0a2.75,2.75,0,0,0-1.9,1.59,102.86,102.86,0,0,0-3.87,70.67c1.6,5.16,4.25,10.81,9.42,12.36C175.88,292.87,173.2,285.84,171.26,279.38Z" style="fill:#fff"></path></g><g style="opacity:0.30000000000000004"><path d="M303.41,314.69a12.44,12.44,0,0,0-3.14-3.17A93.83,93.83,0,0,1,273,275.45c-.51-1.2-1.15-1.76-1.88-3.41-.54-1.19-3.15-3.68-5.76-2.73-1.23.44-4.2,3-1.71,8.38,5.05,13.06,12,21.34,20.82,32.24,3.94,4.88,8.72,10.05,15,10.4,1.49.08,3.17-.22,4.06-1.42A3.89,3.89,0,0,0,303.41,314.69Z" style="fill:#fff"></path></g><g style="opacity:0.30000000000000004"><path d="M180.4,204.86a3.91,3.91,0,1,1-4-3.86A3.92,3.92,0,0,1,180.4,204.86Z" style="fill:#fff"></path></g><path d="M229.93,183.35a12.08,12.08,0,0,0-.62-3.13,12.31,12.31,0,0,0-1.85-2.6c0-.05.4.08.89.47a5.25,5.25,0,0,1,1.85,4.3C230.15,183,230,183.36,229.93,183.35Z" style="fill:#fff"></path><path d="M281.91,184.83a7.5,7.5,0,0,0-.71-3.07,7.34,7.34,0,0,0-2.24-2.21c0-.06.41,0,1,.25a4.31,4.31,0,0,1,1.73,1.71,4.22,4.22,0,0,1,.54,2.36C282.15,184.5,282,184.85,281.91,184.83Z" style="fill:#fff"></path></g><g id="freepik--fortune-cookie-1--inject-34"><path d="M178.47,339a9.52,9.52,0,0,0-1.46-4.69c-1-1.33-2.74-1.1-7.55-2.27-6.71-.26-26-17.41-48.35-12s-50.2,35-50.2,35c-11.5,9.2-21,19.59-20.94,33.31.08,11,7.54,20.7,14.81,29,15.84,18,35.93,26,59.52,30.27,5.23.94,11.11.89,15.17-2.53,4.78-4,5-7.84,5-14.09,0-13.15-.72-24.73-1.72-37.82,5.07,2.07,10.24,4.16,15.7,4.65s11.35-.88,15.14-4.84,4.92-10.14,5.45-15.79A174.51,174.51,0,0,0,178.47,339Z" style="fill:#FF725E"></path><g style="opacity:0.30000000000000004"><path d="M143.68,348.12a17.31,17.31,0,0,0-1.76-4.6,4.65,4.65,0,0,0-3.62-2.22c-1.47,0-3.4,1.76-3.73,4.71l.67,7.21,4.47,23.55c1.12,5.39,2.2,12,3,16.56a59.81,59.81,0,0,0,13.88,4.49C152.07,381.12,148.24,364.82,143.68,348.12Z"></path></g><path d="M144.43,425.59a2.53,2.53,0,0,1-.07-.6l-.12-1.73c-.09-1.55-.22-3.74-.37-6.48-.29-5.6-.68-13.41-1.14-22.52v0c-.85-4.6-1.78-9.63-2.75-14.86-1.15-6.32-2.25-12.33-3.26-17.81-.49-2.73-1-5.33-1.4-7.77a46.14,46.14,0,0,1-1-6.84,7.56,7.56,0,0,1,.55-3,5.69,5.69,0,0,1,1.64-2.18,3.89,3.89,0,0,1,2.2-.87,3.19,3.19,0,0,1,1.92.57,3,3,0,0,1,1.41,2.28,1.64,1.64,0,0,1-.18.93,4.36,4.36,0,0,0,.08-.93,2.9,2.9,0,0,0-1.43-2.11,3,3,0,0,0-1.78-.49,3.64,3.64,0,0,0-2,.85,5.24,5.24,0,0,0-1.51,2.08,7.4,7.4,0,0,0-.5,2.87,47.11,47.11,0,0,0,1,6.76c.46,2.43.94,5,1.46,7.76,1,5.48,2.12,11.49,3.29,17.8,1,5.24,1.88,10.27,2.73,14.87v0h0c.38,9.12.71,16.94.95,22.54.1,2.74.18,4.94.23,6.49,0,.73,0,1.3,0,1.73A3.39,3.39,0,0,1,144.43,425.59Z" style="fill:#263238"></path><g style="opacity:0.30000000000000004"><path d="M172.1,394.23c-6.07-18.32-6.57-38.34,1.16-56,.52-1.21,1.44-2.6,2.74-2.42s1.88,1.53,2.06,2.73a128.86,128.86,0,0,1-.43,42c-.93,5.05-2.2,11.18-5.53,13.7"></path></g><path d="M223.37,333c-7.49-3.93-6.86-4-12.63-5.05s-9.82,1.17-13.44,6.12c-1.72,2.35-5.08,6.18-6.77,8.55-4.35,6.1-19.78,2.79-19.78,2.79-2.86,10.12-2.76,23-2.76,23,.18,10,1.43,15,1.43,15,5.91.41,12.93.82,18.73-.47s11.47-4.5,14.61-9.84c1.66-2.82,2.59-6.16,4.74-8.57a10.14,10.14,0,0,1,11.08-3,31.18,31.18,0,0,1,9.16,5.05C227.19,356.13,224.9,342.65,223.37,333Z" style="fill:#fff"></path><path d="M223.37,333s0,.19.12.58.17,1,.31,1.74c.25,1.55.63,3.79,1.1,6.67s1,6.43,1.59,10.55,1.14,8.83,1.44,14.06l0,.43-.34-.27a32.68,32.68,0,0,0-5.8-3.66,15.34,15.34,0,0,0-7-1.87,9.72,9.72,0,0,0-6.85,3.15c-1.87,1.92-2.84,4.58-4.09,7.15a19.18,19.18,0,0,1-5.44,6.88,24.42,24.42,0,0,1-8.1,4.2A36.3,36.3,0,0,1,181,384c-3.19.11-6.42,0-9.67-.23l-1.92-.13-.2,0,0-.18a67,67,0,0,1-1.24-10c-.1-1.66-.16-3.3-.19-4.94s0-3.25.13-4.86a85.69,85.69,0,0,1,2.65-18.27l.06-.21.22,0a40,40,0,0,0,12.82.62,11.85,11.85,0,0,0,5.51-2A9.87,9.87,0,0,0,191,341.6c.58-.76,1.17-1.5,1.76-2.22,1.17-1.44,2.33-2.82,3.41-4.18a37.88,37.88,0,0,1,3.21-3.9,13.77,13.77,0,0,1,3.81-2.74,11.65,11.65,0,0,1,4.17-1,16.37,16.37,0,0,1,3.84.32c1.19.22,2.3.43,3.33.71a23,23,0,0,1,4.9,2.2l2.93,1.61.76.42.24.15-.27-.12-.77-.38-3-1.54a23,23,0,0,0-4.89-2.13c-1-.26-2.13-.46-3.31-.67a16.63,16.63,0,0,0-3.79-.28,11.11,11.11,0,0,0-4,1,13.49,13.49,0,0,0-3.7,2.7,37,37,0,0,0-3.17,3.88c-1.07,1.37-2.22,2.76-3.39,4.2-.58.72-1.17,1.46-1.74,2.22a10.35,10.35,0,0,1-2,2.21,12.3,12.3,0,0,1-5.7,2.15,40.36,40.36,0,0,1-13-.59l.28-.17a85.76,85.76,0,0,0-2.6,18.17c-.08,1.59-.13,3.21-.13,4.82s.09,3.27.19,4.92a68.72,68.72,0,0,0,1.23,9.93l-.23-.19,1.92.13c3.24.2,6.45.34,9.61.23a35.52,35.52,0,0,0,9.2-1.37,24.08,24.08,0,0,0,7.94-4.1,18.83,18.83,0,0,0,5.32-6.71c1.24-2.52,2.23-5.24,4.19-7.26a10.16,10.16,0,0,1,7.17-3.26A15.59,15.59,0,0,1,222,362.7a32.9,32.9,0,0,1,5.86,3.73l-.31.16c-.28-5.21-.84-9.91-1.37-14s-1.06-7.66-1.49-10.56-.77-5.13-1-6.68c-.11-.74-.19-1.32-.25-1.73S223.37,333,223.37,333Z" style="fill:#263238"></path><polygon points="193.99 347.93 195.32 355.07 200.66 355.72 195.81 363.59 194.94 371.93 189.43 366.71 181.78 369.56 184.25 360.33 180.06 353.07 188.38 354.16 193.99 347.93" style="fill:#e0e0e0"></polygon><path d="M134.57,448.47a1,1,0,0,1,.08-.25l.27-.71a15.13,15.13,0,0,0,.77-2.81,7.49,7.49,0,0,0,.11-1,5,5,0,0,0,0-1.09,5.43,5.43,0,0,0-.68-2.35,6,6,0,0,0-1.89-2.06,11.67,11.67,0,0,0-2.89-1.35c-4.34-1.25-9.82-1.41-15.8-2-1.5-.15-3-.37-4.59-.64s-3.15-.53-4.76-.84A100.46,100.46,0,0,1,95.29,431a81.72,81.72,0,0,1-9.57-3.44,76.27,76.27,0,0,1-8.49-4.21,76.45,76.45,0,0,1-12.72-9.74,96.74,96.74,0,0,1-7.45-7.81c-.81-1-1.44-1.74-1.85-2.28l-.46-.61c-.1-.14-.15-.21-.14-.22l.19.19.5.57,1.91,2.22c1.69,1.9,4.21,4.59,7.55,7.67A77.91,77.91,0,0,0,77.48,423a77.09,77.09,0,0,0,8.44,4.16,83.2,83.2,0,0,0,9.51,3.41c3.33,1,6.64,1.7,9.85,2.32,1.6.31,3.19.59,4.74.85s3.06.49,4.56.65c6,.66,11.44.85,15.87,2.17a11.78,11.78,0,0,1,3,1.43,6.46,6.46,0,0,1,2,2.2,5.79,5.79,0,0,1,.67,2.46,6.07,6.07,0,0,1,0,1.13,7.69,7.69,0,0,1-.14,1,13.55,13.55,0,0,1-.87,2.81l-.33.69A.82.82,0,0,1,134.57,448.47Z" style="fill:#263238"></path><path d="M177,426.81a10.49,10.49,0,0,0-2.17-1.64h0a9.84,9.84,0,0,0-5.43-2.12,5,5,0,0,0-4.4,2.24,4.9,4.9,0,0,0,1,5.52,11.18,11.18,0,0,0,5.22,2.81,9.69,9.69,0,0,0,4.16.48,4.09,4.09,0,0,0,3.25-2.38C179.3,430,178.32,428.1,177,426.81Z" style="fill:#FF725E"></path><path d="M191.81,407.94a4.44,4.44,0,0,0-4.13-2.85c-4.66.92-6.11,2.85-10.28,6.53A3.66,3.66,0,0,0,176,413.7c-.22,1.62,1.58,2.73,3.14,3.22a23.89,23.89,0,0,0,7.56,1.08,5.9,5.9,0,0,0,4.16-1.32,6,6,0,0,0,1.36-3.46A10,10,0,0,0,191.81,407.94Z" style="fill:#FF725E"></path><path d="M255,393.45c-6.24-9.05-16-14.94-25.43-20.56-2.56-1.52-5.24-3.09-8.21-3.3-5.87-.43-11,4.75-12.5,10.42s-.41,11.69.73,17.46a12,12,0,0,0-7.34,14.95l3.21,2.23a323.77,323.77,0,0,0,38.77-1.88c5.18-.59,11.17-1.92,13.36-6.65C259.5,402,257.58,397.17,255,393.45Z" style="fill:#FF725E"></path><path d="M175.08,335.93a5.11,5.11,0,0,0-1.61,1.64,18.24,18.24,0,0,0-2.06,6c-.27,1.34-.56,2.79-.88,4.35s-.67,3.22-.94,5a94.51,94.51,0,0,0-1.16,11.57,96.07,96.07,0,0,0,1.57,21c.52,2.65,1,4.79,1.39,6.26.18.69.32,1.25.43,1.69a3,3,0,0,1,.12.6,2.5,2.5,0,0,1-.22-.57l-.52-1.67c-.43-1.46-1-3.58-1.56-6.24a88.93,88.93,0,0,1-.52-32.77c.28-1.77.66-3.44,1-5s.63-3,.94-4.34a17.59,17.59,0,0,1,2.25-6,4.66,4.66,0,0,1,1.23-1.27A2.31,2.31,0,0,1,175.08,335.93Z" style="fill:#263238"></path><g style="opacity:0.30000000000000004"><path d="M254,410h0c-16,4.57-51.56-5.5-51.29-6.1a11.41,11.41,0,0,0-.47,8.53l3.21,2.23a323.77,323.77,0,0,0,38.77-1.88C247.58,412.39,251.24,411.7,254,410Z"></path></g><g style="opacity:0.2"><path d="M111.92,412c-1-1.41-2.63-1.89-4.19-2.36-11.46-3.48-22.81-8.85-30.43-18.08s-10.64-23-4.78-33.45a44.76,44.76,0,0,0-7.75,6.18,23.73,23.73,0,0,0-4.2,28.35,45.29,45.29,0,0,0,13,14.37c9.95,7.16,22.62,9.79,34.87,9.31,1.54-.06,3.36-.32,3.91-1.89A2.71,2.71,0,0,0,111.92,412Z"></path></g><g style="opacity:0.30000000000000004"><path d="M123.47,442.5c-1.48-1.29-3.74-1.95-5.92-2.45-6.47-1.49-13.18-2.12-19.74-3.34s-13.19-3.13-18.06-6.65c9.61,7.15,28.84,12.77,41,14.8,1.25.21,2.86.3,3.4-.49C124.56,443.79,124.09,443,123.47,442.5Z"></path></g><path d="M70,362.09c.11,0-.4,2-.57,5.26a26.08,26.08,0,0,0,0,2.67c0,1,.12,2,.22,3a39,39,0,0,0,1.51,6.83A38.53,38.53,0,0,0,74,386.28c.56.92,1.06,1.81,1.63,2.58s1.09,1.49,1.61,2.13c2.07,2.52,3.66,3.8,3.58,3.89a7.46,7.46,0,0,1-1.12-.89,11.92,11.92,0,0,1-1.23-1.14c-.45-.47-1-1-1.52-1.63a23.22,23.22,0,0,1-1.67-2.11c-.59-.77-1.12-1.67-1.7-2.59a33.72,33.72,0,0,1-4.42-13.4C69,372,68.93,371,69,370a25.54,25.54,0,0,1,.08-2.69,20.42,20.42,0,0,1,.26-2.21,12.4,12.4,0,0,1,.3-1.65A6.76,6.76,0,0,1,70,362.09Z" style="fill:#263238"></path><path d="M183.47,407.07c.12.11-1.27,1.76-2.57,4.06s-2.05,4.33-2.19,4.28a11.76,11.76,0,0,1,1.74-4.54A12.19,12.19,0,0,1,183.47,407.07Z" style="fill:#263238"></path><path d="M192.33,378.48a7.82,7.82,0,0,1,.18-1.39c.15-.89.35-2.18.56-3.77a82.08,82.08,0,0,0-.5-25c-.28-1.59-.53-2.87-.71-3.75a7.47,7.47,0,0,1-.24-1.38,6.51,6.51,0,0,1,.43,1.34c.25.86.56,2.14.88,3.72a71.18,71.18,0,0,1,.5,25.15c-.25,1.6-.51,2.88-.72,3.76A6.51,6.51,0,0,1,192.33,378.48Z" style="fill:#263238"></path><path d="M217.48,355a21,21,0,0,1-.39-3.22c-.19-2-.46-4.75-.83-7.78s-.75-5.77-1-7.75a20.14,20.14,0,0,1-.38-3.23,20.13,20.13,0,0,1,.74,3.17c.38,2,.83,4.71,1.19,7.75s.58,5.81.67,7.81A18.29,18.29,0,0,1,217.48,355Z" style="fill:#263238"></path><g style="opacity:0.30000000000000004"><path d="M130.25,348.36a9.36,9.36,0,0,1,2.39-6.77c1.83-1.84,5-3.19,4.7-5.78A3.14,3.14,0,0,0,135,333.2a5.48,5.48,0,0,0-5.28,1.85c-3.09,3.14-4.29,7.9-4,12.29,1.08,15.31,3.34,32.72,7.69,48.53a1.65,1.65,0,0,0,1.87,1.07h0a1.68,1.68,0,0,0,1.46-1.72c-1.1-13.35-3.31-24-5.24-37.12A93.22,93.22,0,0,1,130.25,348.36Z" style="fill:#fff"></path></g><path d="M140,325.2a2.92,2.92,0,0,1-.67-.14c-.44-.1-1.07-.29-1.9-.47a34.3,34.3,0,0,0-7.09-.83,33,33,0,0,0-10.43,1.6A45.74,45.74,0,0,0,108.25,331a164.47,164.47,0,0,0-18.86,14.31,67.45,67.45,0,0,0-5.09,5c-1.13,1.26-1.7,2-1.74,2a3.08,3.08,0,0,1,.38-.57c.26-.36.66-.89,1.21-1.54a57.48,57.48,0,0,1,5-5.19A150.78,150.78,0,0,1,108,330.6a45.91,45.91,0,0,1,11.77-5.7,32.85,32.85,0,0,1,10.58-1.51,32,32,0,0,1,7.14,1c.83.21,1.45.44,1.88.57A4.65,4.65,0,0,1,140,325.2Z" style="fill:#fff"></path><path d="M139.44,440.35c-.05,0-.2-.6-.69-1.6a12.72,12.72,0,0,0-2.83-3.74,17.37,17.37,0,0,0-6-3.51,29.4,29.4,0,0,0-8.44-1.4c-3.06-.12-6,0-8.66,0a44.09,44.09,0,0,1-7.08-.54,22,22,0,0,1-4.62-1.28,11.9,11.9,0,0,1-1.18-.55,1.68,1.68,0,0,1-.39-.23s.58.22,1.64.59a24.92,24.92,0,0,0,4.61,1.11,48.3,48.3,0,0,0,7,.42c2.66,0,5.59-.12,8.68,0a28.53,28.53,0,0,1,8.58,1.47,17.41,17.41,0,0,1,6.08,3.69,12.22,12.22,0,0,1,2.77,3.92,10,10,0,0,1,.42,1.24A1.37,1.37,0,0,1,139.44,440.35Z" style="fill:#fff"></path><path d="M166.49,334.3a12.93,12.93,0,0,1,3.67-.26,13.32,13.32,0,0,1,3.67.26,12.88,12.88,0,0,1-3.67.26A13.38,13.38,0,0,1,166.49,334.3Z" style="fill:#fff"></path><path d="M256.17,401.94a11.41,11.41,0,0,1-.94-1.52c-.29-.5-.64-1.11-1.09-1.8s-.92-1.49-1.52-2.32a63.86,63.86,0,0,0-4.41-5.71,69.42,69.42,0,0,0-6.25-6.24,68.3,68.3,0,0,0-7.07-5.29,63.49,63.49,0,0,0-6.28-3.54c-.91-.49-1.77-.84-2.52-1.18s-1.39-.61-1.93-.82a11.35,11.35,0,0,1-1.64-.72,13.52,13.52,0,0,1,1.72.53c.55.18,1.21.42,2,.74s1.63.65,2.56,1.11a57.08,57.08,0,0,1,6.38,3.48,58.82,58.82,0,0,1,13.42,11.62,56.36,56.36,0,0,1,4.35,5.82c.59.85,1.05,1.67,1.47,2.37s.76,1.33,1,1.85A11.43,11.43,0,0,1,256.17,401.94Z" style="fill:#fff"></path></g><g id="freepik--Text--inject-34"><path d="M182.86,116.89l-2.3-.25-1.05,9.4a9.21,9.21,0,0,1-1.16,3.72,7.48,7.48,0,0,1-2.36,2.48,9,9,0,0,1-3.31,1.27,14.31,14.31,0,0,1-4,.1,9.45,9.45,0,0,1-1.55-.31,7.06,7.06,0,0,1-1.29-.53,3.06,3.06,0,0,1-.86-.67,1,1,0,0,1-.26-.77,2,2,0,0,1,.15-.57,1.63,1.63,0,0,1,.3-.51,1.21,1.21,0,0,1,.43-.35.84.84,0,0,1,.54-.09.36.36,0,0,1,.3.21,3.33,3.33,0,0,1,.22.46l.28.61a2.47,2.47,0,0,0,.41.62,2.89,2.89,0,0,0,.66.51,2.74,2.74,0,0,0,1,.29,5.07,5.07,0,0,0,2.23-.21,4.41,4.41,0,0,0,1.72-1.08,5.64,5.64,0,0,0,1.17-1.83,8.71,8.71,0,0,0,.61-2.45l.11-1a12.75,12.75,0,0,1-1.38.07c-.46,0-1,0-1.54-.1a12.47,12.47,0,0,1-4-1.12,8.75,8.75,0,0,1-3.09-2.43,9.7,9.7,0,0,1-1.84-3.8,14.6,14.6,0,0,1-.25-5.25,15.83,15.83,0,0,1,.88-3.79,12.86,12.86,0,0,1,1.6-3,11.33,11.33,0,0,1,4.76-3.81,11.28,11.28,0,0,1,2.85-.79,12.43,12.43,0,0,1,5.51.51,7.63,7.63,0,0,1,2,1,4.13,4.13,0,0,1,1.27,1.41,3,3,0,0,1,.32,1.74,3.06,3.06,0,0,1-.25.89,3.24,3.24,0,0,1-.54.82,2.41,2.41,0,0,1-.8.56,2.1,2.1,0,0,1-1,.13,1.26,1.26,0,0,1-1-.51,2.44,2.44,0,0,1-.38-1,6.6,6.6,0,0,1-.11-1.29,7.43,7.43,0,0,0-.13-1.3,2.51,2.51,0,0,0-.48-1,1.58,1.58,0,0,0-1.1-.52,3.61,3.61,0,0,0-1.3.13,5.26,5.26,0,0,0-1.52.7,9.22,9.22,0,0,0-1.58,1.33,10,10,0,0,0-1.48,2,15.14,15.14,0,0,0-1.18,2.82,18.8,18.8,0,0,0-.74,3.65,22.81,22.81,0,0,0-.15,3.92,12.22,12.22,0,0,0,.47,2.77,5.74,5.74,0,0,0,.89,1.84,4.93,4.93,0,0,0,1.17,1.09,4.32,4.32,0,0,0,1.26.55,8.42,8.42,0,0,0,1.19.22,5.17,5.17,0,0,0,1,0,3.65,3.65,0,0,0,.86-.16l.9-8.08-2.82-.32.16-1.42,9.72,1.08Z" style="fill:#263238"></path><path d="M184.77,118.66a10.51,10.51,0,0,1,.78-3.67,7.91,7.91,0,0,1,1.76-2.57,6.5,6.5,0,0,1,2.45-1.48,7.61,7.61,0,0,1,2.85-.4,8,8,0,0,1,2.81.62,6.45,6.45,0,0,1,2.31,1.62,7.23,7.23,0,0,1,1.51,2.64,9.91,9.91,0,0,1,.44,3.7,10.4,10.4,0,0,1-.78,3.71,8.39,8.39,0,0,1-1.76,2.66,6.81,6.81,0,0,1-2.45,1.57,7.12,7.12,0,0,1-2.86.44,7.52,7.52,0,0,1-2.81-.67,6.75,6.75,0,0,1-2.3-1.71,7.82,7.82,0,0,1-1.51-2.73A10.15,10.15,0,0,1,184.77,118.66Zm9.91.3c0-.86,0-1.69,0-2.49a11.19,11.19,0,0,0-.24-2.15,3.86,3.86,0,0,0-.68-1.53,1.59,1.59,0,0,0-1.24-.61,1.57,1.57,0,0,0-1.3.53,4.08,4.08,0,0,0-.81,1.51,11.22,11.22,0,0,0-.44,2.17c-.09.81-.16,1.64-.2,2.5s0,1.7,0,2.52a11.22,11.22,0,0,0,.23,2.22,4.15,4.15,0,0,0,.67,1.59,1.56,1.56,0,0,0,1.24.64,1.53,1.53,0,0,0,1.3-.55,4.13,4.13,0,0,0,.82-1.58,12.9,12.9,0,0,0,.45-2.23C194.57,120.66,194.64,119.82,194.68,119Z" style="fill:#263238"></path><path d="M202.35,119.43a10.13,10.13,0,0,1,.44-3.72,8,8,0,0,1,1.52-2.72,6.6,6.6,0,0,1,2.3-1.7,8,8,0,0,1,2.81-.66,8.31,8.31,0,0,1,2.86.37,6.48,6.48,0,0,1,2.44,1.4,7.47,7.47,0,0,1,1.75,2.49,10.09,10.09,0,0,1,.77,3.65,10.46,10.46,0,0,1-.44,3.77,8.58,8.58,0,0,1-1.51,2.81,6.83,6.83,0,0,1-2.3,1.78,7.19,7.19,0,0,1-2.81.7,7.67,7.67,0,0,1-2.86-.41,6.76,6.76,0,0,1-2.45-1.5,8,8,0,0,1-1.75-2.58A10.4,10.4,0,0,1,202.35,119.43Zm9.89-.6c0-.86-.11-1.69-.2-2.48a10.83,10.83,0,0,0-.44-2.12,3.84,3.84,0,0,0-.81-1.46,1.59,1.59,0,0,0-1.29-.49,1.55,1.55,0,0,0-1.25.64,4.1,4.1,0,0,0-.67,1.58,11,11,0,0,0-.24,2.19q0,1.23,0,2.52c0,.86.1,1.7.19,2.51a11.6,11.6,0,0,0,.44,2.19,4.13,4.13,0,0,0,.81,1.52,1.59,1.59,0,0,0,1.29.53,1.57,1.57,0,0,0,1.25-.67,4.33,4.33,0,0,0,.67-1.64,12.75,12.75,0,0,0,.24-2.27C212.29,120.54,212.28,119.69,212.24,118.83Z" style="fill:#263238"></path><path d="M228.4,108.56a16.49,16.49,0,0,0-1.67-2.64,10.17,10.17,0,0,0-1.94-1.94,6,6,0,0,0-2.12-1,4.24,4.24,0,0,0-3.26.52,4.52,4.52,0,0,0-.76.62,5.64,5.64,0,0,0-.5.59l-.26.38-.56-.42a5.34,5.34,0,0,1,.64-1.16,6.33,6.33,0,0,1,.95-1.06,8.23,8.23,0,0,1,1.21-.86,6.32,6.32,0,0,1,1.34-.58,8.28,8.28,0,0,1,4.31-.19,8.75,8.75,0,0,1,3.73,2,14.52,14.52,0,0,1,3.05,3.89,26.85,26.85,0,0,1,2.28,5.56,18.43,18.43,0,0,1,.81,4.63,10,10,0,0,1-.52,3.68,6.46,6.46,0,0,1-1.74,2.65,7.4,7.4,0,0,1-2.89,1.56,7.54,7.54,0,0,1-2.54.3,6.45,6.45,0,0,1-2.64-.73,7.52,7.52,0,0,1-2.37-2,12,12,0,0,1-2.24-7.24,8.27,8.27,0,0,1,.72-3,6.5,6.5,0,0,1,1.68-2.22,6.27,6.27,0,0,1,2.42-1.31,4.85,4.85,0,0,1,1-.2,5.3,5.3,0,0,1,.79,0,3.41,3.41,0,0,1,.62.12A4.22,4.22,0,0,1,228.4,108.56Zm2.2,6.74-.2-.69c-.1-.34-.23-.73-.39-1.18s-.33-.9-.53-1.39a9.84,9.84,0,0,0-.66-1.34,5.76,5.76,0,0,0-1.08-.61,1.86,1.86,0,0,0-1.28,0c-.8.23-1.24.93-1.3,2.1a16.19,16.19,0,0,0,.88,5,25.27,25.27,0,0,0,.92,2.61,11.45,11.45,0,0,0,1,2,3.82,3.82,0,0,0,1.09,1.13,1.35,1.35,0,0,0,1.16.18Q232.7,122.37,230.6,115.3Z" style="fill:#263238"></path><path d="M261.57,100.76l-6,2.14,3,8.45a2.28,2.28,0,0,1,0,1.92,3,3,0,0,1-1.69,1.2,3,3,0,0,1-2.07.15,2.31,2.31,0,0,1-1.22-1.48l-3-8.45-2.37.84-.47-1.33,2.36-.85-3.41-9.54a10.31,10.31,0,0,0-2.22,1.4,11.66,11.66,0,0,0-1.1,1,6.33,6.33,0,0,0-.87,1.15,3.91,3.91,0,0,0-.47,1.24,2.38,2.38,0,0,0,.09,1.24,2.17,2.17,0,0,0,.41.72,1.26,1.26,0,0,0,.45.33.76.76,0,0,0,.41.06,1.7,1.7,0,0,0,.26,0,1.47,1.47,0,0,0,.58-.35c.13-.15.24-.29.34-.43l.27-.41a.69.69,0,0,1,.36-.27,1.09,1.09,0,0,1,.42-.06,1.23,1.23,0,0,1,.47.13,1.74,1.74,0,0,1,.47.37,2.09,2.09,0,0,1,.38.68,2.45,2.45,0,0,1,.14,1.14,2.51,2.51,0,0,1-.34,1,2.72,2.72,0,0,1-.7.74,3.26,3.26,0,0,1-.9.48,3.34,3.34,0,0,1-1.4.22,3.21,3.21,0,0,1-1.24-.33,3.18,3.18,0,0,1-1-.8,3.93,3.93,0,0,1-.66-1.19,5,5,0,0,1-.11-3.37,7.68,7.68,0,0,1,2-3,15.63,15.63,0,0,1,3.55-2.58,33.43,33.43,0,0,1,4.7-2.1l2.2-.76,2.17-.7c.68-.21,1.29-.38,1.82-.53a8.23,8.23,0,0,1,1.14-.25,2.59,2.59,0,0,1,.55,0,1,1,0,0,1,.35.11.73.73,0,0,1,.22.24,2,2,0,0,1,.16.36,2.16,2.16,0,0,1,.1.42,2.37,2.37,0,0,1,0,.46,1.38,1.38,0,0,1-.11.41.48.48,0,0,1-.29.25.45.45,0,0,1-.3,0c-.12,0-.29-.08-.51-.12a5.08,5.08,0,0,0-.83-.1,8.56,8.56,0,0,0-1.33.08,16.26,16.26,0,0,0-2,.4c-.77.19-1.68.48-2.73.85l3.48,9.73,6-2.15Z" style="fill:#263238"></path><path d="M264.5,103a10.5,10.5,0,0,1-.15-3.75,7.76,7.76,0,0,1,1.07-2.92,6.53,6.53,0,0,1,2-2,7.8,7.8,0,0,1,2.67-1.09,8.22,8.22,0,0,1,2.88-.09,6.52,6.52,0,0,1,2.63,1,7.41,7.41,0,0,1,2.12,2.19,10,10,0,0,1,1.35,3.48,10.7,10.7,0,0,1,.15,3.79,8.45,8.45,0,0,1-1,3,7,7,0,0,1-2,2.13,7.21,7.21,0,0,1-2.66,1.13,7.6,7.6,0,0,1-2.89,0,6.78,6.78,0,0,1-2.65-1.09,7.84,7.84,0,0,1-2.14-2.28A10,10,0,0,1,264.5,103Zm9.67-2.16c-.17-.84-.37-1.65-.59-2.42a10.67,10.67,0,0,0-.77-2,3.6,3.6,0,0,0-1-1.31,1.59,1.59,0,0,0-1.36-.29,1.55,1.55,0,0,0-1.13.83,4.06,4.06,0,0,0-.42,1.67,12.21,12.21,0,0,0,.11,2.2c.12.82.26,1.64.43,2.48s.37,1.66.59,2.46a11.33,11.33,0,0,0,.78,2.08,4,4,0,0,0,1,1.38,1.57,1.57,0,0,0,1.36.31,1.55,1.55,0,0,0,1.13-.85,4.5,4.5,0,0,0,.4-1.73,13.11,13.11,0,0,0-.12-2.28C274.49,102.47,274.35,101.63,274.17,100.79Z" style="fill:#263238"></path><path d="M287,94.12a13.22,13.22,0,0,1,1.15-1.8,7.08,7.08,0,0,1,.57-.68,4.66,4.66,0,0,1,.65-.61,3.59,3.59,0,0,1,.71-.46,2.11,2.11,0,0,1,.76-.21,1.67,1.67,0,0,1,1.32.37,1.91,1.91,0,0,1,.59,1.33,5.38,5.38,0,0,1,0,1.06,7.78,7.78,0,0,1-.23,1.26l-.45,0a1.48,1.48,0,0,0-.53-.78,1.43,1.43,0,0,0-1.05-.24,2.65,2.65,0,0,0-1,.27,7,7,0,0,0-.9.55,8.86,8.86,0,0,0-.82.67c-.25.24-.48.46-.69.68l.95,10.41a2.19,2.19,0,0,1,0,.5,1.12,1.12,0,0,1-.26.58,2.26,2.26,0,0,1-.7.51,4,4,0,0,1-1.32.3,3.55,3.55,0,0,1-1.36-.08,2.16,2.16,0,0,1-.79-.4,1.25,1.25,0,0,1-.37-.53,2.44,2.44,0,0,1-.11-.46L282.06,94a1.46,1.46,0,0,0-.3-.79.78.78,0,0,0-.76-.28.89.89,0,0,0-.45.14,2.07,2.07,0,0,0-.4.31l-.37-.37c.23-.23.49-.45.77-.68a6.06,6.06,0,0,1,.94-.61,7,7,0,0,1,1.11-.47,5.21,5.21,0,0,1,1.27-.26,3.29,3.29,0,0,1,1.2.07,2.44,2.44,0,0,1,.84.41,2.3,2.3,0,0,1,.55.62,3.65,3.65,0,0,1,.33.73,3.18,3.18,0,0,1,.17.71C287,93.77,287,94,287,94.12Z" style="fill:#263238"></path><path d="M300.68,91.48l.19,11.91a1.65,1.65,0,0,0,.34,1.18,1.17,1.17,0,0,0,.89.31,1.31,1.31,0,0,0,.77-.25,3,3,0,0,0,.57-.56,3.49,3.49,0,0,0,.49-.8l.5.22c-.16.35-.34.73-.56,1.14a4.61,4.61,0,0,1-.86,1.15,4.73,4.73,0,0,1-1.36.9,5.55,5.55,0,0,1-2.08.39,4.82,4.82,0,0,1-1.37-.19,3.52,3.52,0,0,1-1.17-.64,3.38,3.38,0,0,1-.83-1.12,4,4,0,0,1-.33-1.62l-.19-11.94-1.8,0,0-1.16a4.86,4.86,0,0,0,1.25-.26,6.19,6.19,0,0,0,1.64-.8,6.58,6.58,0,0,0,1.55-1.49,5.57,5.57,0,0,0,1-2.29l1.29,0,.07,4.75,2.63,0c.86,0,1.28-.17,1.28-.46a.21.21,0,0,0-.17-.21l-.36-.14a1.31,1.31,0,0,1-.37-.24.78.78,0,0,1-.17-.53,1,1,0,0,1,.27-.72,1.11,1.11,0,0,1,.73-.27,1,1,0,0,1,.51.12,1.12,1.12,0,0,1,.37.31,1.8,1.8,0,0,1,.23.46,3,3,0,0,1,.08.51,2.32,2.32,0,0,1-.58,1.68,2.6,2.6,0,0,1-1.93.65Z" style="fill:#263238"></path><path d="M320.91,104.77c0,.1,0,.2,0,.32a1.14,1.14,0,0,0,.07.32.48.48,0,0,0,.18.26.59.59,0,0,0,.36.12.84.84,0,0,0,.56-.18c.17-.14.33-.28.47-.42l.37.36a9.3,9.3,0,0,1-.64.71,5,5,0,0,1-.93.73,4.79,4.79,0,0,1-1.21.55,4.05,4.05,0,0,1-1.51.17,3.6,3.6,0,0,1-1.22-.26,2.55,2.55,0,0,1-.85-.55,1.94,1.94,0,0,1-.5-.77,2.36,2.36,0,0,1-.12-.92l0-.72a12.4,12.4,0,0,1-1.78,1.43c-.27.18-.55.35-.85.52a9.9,9.9,0,0,1-.93.44,6.63,6.63,0,0,1-1,.29,4.21,4.21,0,0,1-1,.07,3.76,3.76,0,0,1-1.63-.44,3.1,3.1,0,0,1-1.05-1,3.66,3.66,0,0,1-.54-1.3,5.35,5.35,0,0,1-.11-1.43l.57-10a1.6,1.6,0,0,0,0-.31,1,1,0,0,0-.06-.33.51.51,0,0,0-.18-.26.59.59,0,0,0-.36-.12.84.84,0,0,0-.55.19,5,5,0,0,0-.47.42l-.38-.36a9.28,9.28,0,0,1,.64-.72,5.47,5.47,0,0,1,.93-.73,5.17,5.17,0,0,1,1.21-.55,4.3,4.3,0,0,1,1.5-.16,3.62,3.62,0,0,1,1.23.25A2.71,2.71,0,0,1,312,91a2.11,2.11,0,0,1,.49.77,2.38,2.38,0,0,1,.12.92L312,103.44a1.46,1.46,0,0,0,0,.46,1.34,1.34,0,0,0,.19.44,1,1,0,0,0,.32.33,1,1,0,0,0,.5.15,2,2,0,0,0,.94-.18,4.65,4.65,0,0,0,.89-.53,6.25,6.25,0,0,0,.7-.61l.44-.46.54-9.39a1.71,1.71,0,0,0,0-.32.87.87,0,0,0-.06-.32.64.64,0,0,0-.18-.27.67.67,0,0,0-.36-.11.81.81,0,0,0-.55.18,5,5,0,0,0-.47.42l-.38-.36a9.3,9.3,0,0,1,.64-.71,5.28,5.28,0,0,1,.92-.73,5.46,5.46,0,0,1,1.22-.56,4.3,4.3,0,0,1,1.5-.16,3.66,3.66,0,0,1,1.23.26,2.5,2.5,0,0,1,.86.55,2.15,2.15,0,0,1,.49.77,2.33,2.33,0,0,1,.12.92Z" style="fill:#263238"></path><path d="M335,101.29a23.5,23.5,0,0,0,.26-3.24,6.94,6.94,0,0,0-.23-1.9,1.77,1.77,0,0,0-.56-.92,1.63,1.63,0,0,0-.72-.31,1.47,1.47,0,0,0-.86.14,2.89,2.89,0,0,0-.7.48,4.72,4.72,0,0,0-.53.58,5.05,5.05,0,0,1-.38.43l-1.47,10.66a2.58,2.58,0,0,1-.14.5,1.17,1.17,0,0,1-.39.51,1.81,1.81,0,0,1-.79.35,4.79,4.79,0,0,1-2.66-.38,2,2,0,0,1-.68-.58,1.09,1.09,0,0,1-.24-.6,1.82,1.82,0,0,1,0-.47l1.7-12.32a1.56,1.56,0,0,0-.11-.84.78.78,0,0,0-.68-.44.9.9,0,0,0-.47,0,2.57,2.57,0,0,0-.46.21l-.28-.44c.28-.17.58-.33.91-.49a6.87,6.87,0,0,1,1.05-.38,7.19,7.19,0,0,1,1.19-.21,5.61,5.61,0,0,1,1.29,0,3.13,3.13,0,0,1,1.57.57,2.34,2.34,0,0,1,.73.93,2.6,2.6,0,0,1,.19,1c0,.35,0,.64-.06.88A8.58,8.58,0,0,1,333,93.78a7.44,7.44,0,0,1,.75-.46,6.74,6.74,0,0,1,.87-.38,4.77,4.77,0,0,1,.94-.22,3.58,3.58,0,0,1,1,0,4.23,4.23,0,0,1,1.87.68A3.42,3.42,0,0,1,339.63,95a8.08,8.08,0,0,1,.52,2.7,22.57,22.57,0,0,1-.25,4,16.87,16.87,0,0,1-1,4,11.86,11.86,0,0,1-1.48,2.76,7.7,7.7,0,0,1-1.79,1.74,7.91,7.91,0,0,1-1.87,1,7.37,7.37,0,0,1-1.73.37,7.88,7.88,0,0,1-1.39,0l-.09-.68a2.89,2.89,0,0,0,.93-.23,2.34,2.34,0,0,0,.84-.6,4.61,4.61,0,0,0,.76-1.09,11.19,11.19,0,0,0,.68-1.72,22.57,22.57,0,0,0,.62-2.49C334.6,103.72,334.79,102.59,335,101.29Z" style="fill:#263238"></path><path d="M347.22,104.08a4.55,4.55,0,0,0-.07,1.13,6.46,6.46,0,0,0,.18,1.28,6.89,6.89,0,0,0,.47,1.29,5.59,5.59,0,0,0,.76,1.17,4.78,4.78,0,0,0,1.07.93,4.14,4.14,0,0,0,1.4.55,3.86,3.86,0,0,0,1.05.09,4.39,4.39,0,0,0,1-.17,6.08,6.08,0,0,0,.89-.35l.89-.46.31.46a11.72,11.72,0,0,1-1.15.88,7.72,7.72,0,0,1-1.6.81,7.81,7.81,0,0,1-2.05.46,8.22,8.22,0,0,1-2.52-.16,7.67,7.67,0,0,1-2.57-1,6.71,6.71,0,0,1-2-2,7.4,7.4,0,0,1-1.11-2.81,10.2,10.2,0,0,1,1-6.16,8.34,8.34,0,0,1,3.23-3.35,8.79,8.79,0,0,1,2-.84,8.46,8.46,0,0,1,2-.34,7.73,7.73,0,0,1,1.89.13,7.64,7.64,0,0,1,2,.67,4.77,4.77,0,0,1,1.31,1,2.91,2.91,0,0,1,.65,1.17,2.57,2.57,0,0,1,0,1.23,2.35,2.35,0,0,1-.71,1.25,3.93,3.93,0,0,1-1.34.79Zm3.84-2.54a2.74,2.74,0,0,0,.38-.18.92.92,0,0,0,.28-.24,1.91,1.91,0,0,0,.2-.38,4.22,4.22,0,0,0,.16-.6,4.76,4.76,0,0,0,.1-.9,3.53,3.53,0,0,0-.11-1,2.15,2.15,0,0,0-.37-.81A1.07,1.07,0,0,0,351,97a1.43,1.43,0,0,0-1,.14,2.62,2.62,0,0,0-.84.73,6.23,6.23,0,0,0-.67,1.14c-.19.44-.36.88-.51,1.34s-.27.89-.37,1.31-.18.78-.24,1.08Z" style="fill:#263238"></path></g></svg>