<svg xmlns="http://www.w3.org/2000/svg" xmlns:xlink="http://www.w3.org/1999/xlink" width="500" zoomAndPan="magnify" viewBox="0 0 375 149.999998" height="200" preserveAspectRatio="xMidYMid meet" version="1.0"><defs><g/><clipPath id="b568bced91"><path d="M 4.808594 30.019531 L 68 30.019531 L 68 108 L 4.808594 108 Z M 4.808594 30.019531 " clip-rule="nonzero"/></clipPath><clipPath id="4f98c35630"><path d="M 52 32 L 107.558594 32 L 107.558594 106 L 52 106 Z M 52 32 " clip-rule="nonzero"/></clipPath></defs><g clip-path="url(#b568bced91)"><path fill="#ffffff" d="M 61.984375 81.167969 L 53.300781 72.976562 C 53.300781 72.976562 59.351562 57.957031 61.984375 53.253906 C 63.109375 51.242188 64.457031 48.589844 65.230469 45.660156 C 65.300781 45.671875 65.371094 45.679688 65.445312 45.679688 C 66.578125 45.679688 67.496094 44.035156 67.496094 42.003906 C 67.496094 40.476562 66.976562 39.167969 66.238281 38.613281 C 66.238281 38.613281 65.210938 39.367188 65.144531 40.851562 C 65.144531 40.851562 64.859375 39.238281 66.152344 37.851562 C 65.933594 36.226562 65.539062 35.273438 64.5625 34.097656 C 62.835938 32.015625 60.195312 31.320312 56.183594 31.136719 C 52.421875 30.964844 49.707031 30.519531 46.523438 30.171875 C 45.425781 30.054688 45.894531 32.15625 46.191406 32.667969 C 46.78125 33.691406 47.625 34.03125 50.621094 34.910156 C 50.621094 34.910156 48.222656 34.910156 45.769531 33.535156 C 45.214844 34.535156 44.90625 35.851562 44.800781 37.347656 C 46.765625 39.371094 46.34375 41.773438 46.34375 41.773438 C 46.246094 39.628906 44.757812 38.535156 44.757812 38.535156 C 43.960938 39.039062 43.386719 40.402344 43.386719 42.003906 C 43.386719 44.035156 44.308594 45.679688 45.441406 45.679688 C 45.546875 45.679688 45.65625 45.664062 45.757812 45.632812 C 46.644531 48.996094 48.035156 52.148438 49.585938 54.011719 C 48.765625 54.804688 47.980469 55.5625 47.25 56.128906 C 51.855469 55.917969 55.441406 59.097656 55.441406 59.097656 C 55.441406 59.097656 49.066406 55.226562 44.128906 58.074219 C 37.289062 62.023438 29.867188 59.097656 29.867188 59.097656 C 29.867188 59.097656 36.570312 60.304688 43.671875 57.011719 C 43.824219 56.941406 43.976562 56.875 44.128906 56.816406 C 40.40625 55.382812 36.957031 53.234375 27.972656 57.589844 C 27.972656 57.589844 25.640625 58.566406 24.308594 60.628906 C 24.308594 60.628906 24.671875 58.75 26.707031 57.058594 C 24.921875 56.429688 21.566406 55.664062 18.675781 57.417969 C 18.675781 57.417969 16.347656 58.398438 15.015625 60.457031 C 15.015625 60.457031 16.027344 57.953125 18.855469 56.128906 C 19.28125 53.578125 20.609375 47.839844 24.246094 44.316406 C 24.414062 44.148438 24.570312 44.007812 24.71875 43.882812 C 23.546875 44.101562 22.601562 44.5625 22.601562 44.5625 C 24.496094 42.808594 26.195312 43.515625 27.433594 43.410156 C 28.898438 43.28125 30.65625 44.027344 31.554688 43.898438 C 32.753906 43.722656 34.640625 43.515625 35.105469 43.257812 C 36.398438 42.539062 35.515625 41.058594 34.496094 41.015625 C 33.175781 40.953125 36.9375 41.054688 36.832031 39.535156 C 36.671875 37.183594 36.9375 36.4375 36.242188 35.511719 C 35.929688 35.097656 32.757812 32.222656 31.785156 32.222656 C 29.152344 32.230469 25.136719 34.6875 22.976562 35.65625 C 21.152344 36.476562 20.316406 38.132812 19.507812 39.441406 C 17.972656 41.945312 4.808594 58.3125 4.945312 63.269531 C 5.089844 68.660156 15.765625 74.210938 26.585938 70.609375 C 26.585938 70.609375 29.15625 69.417969 30.589844 68.355469 C 30.589844 68.355469 29.042969 70.144531 27.140625 71.328125 C 27.75 72.101562 28.476562 73.105469 29.28125 74.273438 C 31.855469 77.492188 36.59375 82.523438 42.707031 85.019531 C 42.707031 85.019531 39.429688 84.609375 34.886719 82.800781 C 35.910156 84.402344 36.941406 86.027344 37.933594 87.59375 C 39.15625 89.519531 40.734375 91.199219 42.605469 92.507812 C 44.203125 93.632812 45.957031 94.640625 47.839844 95.410156 C 47.839844 95.410156 45.476562 95.117188 41.988281 93.921875 C 43.046875 95.546875 43.9375 96.863281 44.558594 97.6875 C 46.09375 99.726562 48.617188 101.632812 47.9375 107.628906 L 61.984375 81.167969 " fill-opacity="1" fill-rule="nonzero"/></g><g clip-path="url(#4f98c35630)"><path fill="#f15a24" d="M 92.855469 39.441406 C 92.050781 38.132812 91.210938 36.476562 89.386719 35.65625 C 87.230469 34.6875 83.214844 32.230469 80.578125 32.222656 C 79.609375 32.222656 76.433594 35.097656 76.121094 35.511719 C 75.429688 36.4375 75.695312 37.183594 75.535156 39.535156 C 75.429688 41.054688 79.191406 40.953125 77.867188 41.015625 C 76.851562 41.058594 75.964844 42.539062 77.257812 43.257812 C 77.722656 43.515625 79.613281 43.722656 80.8125 43.898438 C 81.707031 44.027344 83.464844 43.28125 84.929688 43.410156 C 86.167969 43.515625 87.867188 42.808594 89.761719 44.5625 C 89.761719 44.5625 88.816406 44.101562 87.648438 43.882812 C 87.796875 44.007812 87.949219 44.148438 88.121094 44.316406 C 91.757812 47.839844 93.082031 53.578125 93.507812 56.128906 C 96.339844 57.953125 97.351562 60.457031 97.351562 60.457031 C 96.019531 58.398438 93.6875 57.417969 93.6875 57.417969 C 90.796875 55.664062 87.441406 56.429688 85.660156 57.058594 C 87.691406 58.75 88.058594 60.628906 88.058594 60.628906 C 86.722656 58.566406 84.394531 57.589844 84.394531 57.589844 C 80.378906 55.644531 77.472656 54.996094 75.148438 55.003906 L 73.359375 58.167969 C 79.230469 59.984375 84.148438 59.097656 84.148438 59.097656 C 84.148438 59.097656 78.613281 61.277344 72.699219 59.332031 L 65.523438 72.011719 L 73.082031 79.242188 L 52.953125 102.03125 C 52.953125 102.03125 67.921875 108.742188 78.183594 102.398438 C 71.296875 96.105469 70.613281 93 71.589844 89.515625 C 72.910156 84.792969 81.019531 72.300781 81.019531 72.300781 C 91.839844 75.902344 107.277344 68.660156 107.421875 63.269531 C 107.554688 58.3125 94.390625 41.945312 92.855469 39.441406 " fill-opacity="1" fill-rule="nonzero"/></g><g fill="#ffffff" fill-opacity="1"><g transform="translate(115.108201, 93.685578)"><g><path d="M 2.828125 -9.5625 L 2.828125 -5.4375 L 8.28125 -5.4375 L 8.28125 -4.46875 L 2.828125 -4.46875 L 2.828125 0 L 1.71875 0 L 1.71875 -10.53125 L 8.9375 -10.53125 L 8.9375 -9.5625 Z M 2.828125 -9.5625 "/></g></g></g><g fill="#ffffff" fill-opacity="1"><g transform="translate(133.947536, 93.685578)"><g><path d="M 1.71875 -10.53125 L 2.828125 -10.53125 L 2.828125 0 L 1.71875 0 Z M 1.71875 -10.53125 "/></g></g></g><g fill="#ffffff" fill-opacity="1"><g transform="translate(147.807645, 93.685578)"><g><path d="M 3.765625 -9.5625 L 0.0625 -9.5625 L 0.0625 -10.53125 L 8.578125 -10.53125 L 8.578125 -9.5625 L 4.875 -9.5625 L 4.875 0 L 3.765625 0 Z M 3.765625 -9.5625 "/></g></g></g><g fill="#ffffff" fill-opacity="1"><g transform="translate(165.759434, 93.685578)"><g><path d="M 10.515625 -10.53125 L 10.515625 0 L 9.59375 0 L 2.828125 -8.546875 L 2.828125 0 L 1.71875 0 L 1.71875 -10.53125 L 2.640625 -10.53125 L 9.421875 -1.984375 L 9.421875 -10.53125 Z M 10.515625 -10.53125 "/></g></g></g><g fill="#ffffff" fill-opacity="1"><g transform="translate(187.30649, 93.685578)"><g><path d="M 9.15625 -0.96875 L 9.15625 0 L 1.71875 0 L 1.71875 -10.53125 L 8.9375 -10.53125 L 8.9375 -9.5625 L 2.828125 -9.5625 L 2.828125 -5.828125 L 8.28125 -5.828125 L 8.28125 -4.875 L 2.828125 -4.875 L 2.828125 -0.96875 Z M 9.15625 -0.96875 "/></g></g></g><g fill="#ffffff" fill-opacity="1"><g transform="translate(206.687366, 93.685578)"><g><path d="M 4.625 0.09375 C 3.84375 0.09375 3.09375 -0.03125 2.375 -0.28125 C 1.65625 -0.53125 1.097656 -0.863281 0.703125 -1.28125 L 1.140625 -2.140625 C 1.523438 -1.753906 2.03125 -1.441406 2.65625 -1.203125 C 3.289062 -0.972656 3.945312 -0.859375 4.625 -0.859375 C 5.5625 -0.859375 6.265625 -1.03125 6.734375 -1.375 C 7.210938 -1.71875 7.453125 -2.164062 7.453125 -2.71875 C 7.453125 -3.144531 7.320312 -3.484375 7.0625 -3.734375 C 6.8125 -3.984375 6.5 -4.175781 6.125 -4.3125 C 5.75 -4.445312 5.234375 -4.59375 4.578125 -4.75 C 3.785156 -4.957031 3.148438 -5.148438 2.671875 -5.328125 C 2.203125 -5.515625 1.800781 -5.796875 1.46875 -6.171875 C 1.132812 -6.554688 0.96875 -7.078125 0.96875 -7.734375 C 0.96875 -8.265625 1.109375 -8.75 1.390625 -9.1875 C 1.671875 -9.625 2.097656 -9.972656 2.671875 -10.234375 C 3.253906 -10.492188 3.976562 -10.625 4.84375 -10.625 C 5.445312 -10.625 6.035156 -10.539062 6.609375 -10.375 C 7.191406 -10.207031 7.691406 -9.976562 8.109375 -9.6875 L 7.734375 -8.796875 C 7.296875 -9.085938 6.820312 -9.304688 6.3125 -9.453125 C 5.8125 -9.597656 5.320312 -9.671875 4.84375 -9.671875 C 3.914062 -9.671875 3.21875 -9.492188 2.75 -9.140625 C 2.289062 -8.785156 2.0625 -8.328125 2.0625 -7.765625 C 2.0625 -7.335938 2.1875 -6.992188 2.4375 -6.734375 C 2.695312 -6.484375 3.019531 -6.289062 3.40625 -6.15625 C 3.789062 -6.019531 4.3125 -5.875 4.96875 -5.71875 C 5.738281 -5.53125 6.359375 -5.34375 6.828125 -5.15625 C 7.304688 -4.96875 7.710938 -4.6875 8.046875 -4.3125 C 8.378906 -3.9375 8.546875 -3.425781 8.546875 -2.78125 C 8.546875 -2.25 8.398438 -1.765625 8.109375 -1.328125 C 7.828125 -0.890625 7.390625 -0.539062 6.796875 -0.28125 C 6.203125 -0.03125 5.476562 0.09375 4.625 0.09375 Z M 4.625 0.09375 "/></g></g></g><g fill="#ffffff" fill-opacity="1"><g transform="translate(225.255916, 93.685578)"><g><path d="M 4.625 0.09375 C 3.84375 0.09375 3.09375 -0.03125 2.375 -0.28125 C 1.65625 -0.53125 1.097656 -0.863281 0.703125 -1.28125 L 1.140625 -2.140625 C 1.523438 -1.753906 2.03125 -1.441406 2.65625 -1.203125 C 3.289062 -0.972656 3.945312 -0.859375 4.625 -0.859375 C 5.5625 -0.859375 6.265625 -1.03125 6.734375 -1.375 C 7.210938 -1.71875 7.453125 -2.164062 7.453125 -2.71875 C 7.453125 -3.144531 7.320312 -3.484375 7.0625 -3.734375 C 6.8125 -3.984375 6.5 -4.175781 6.125 -4.3125 C 5.75 -4.445312 5.234375 -4.59375 4.578125 -4.75 C 3.785156 -4.957031 3.148438 -5.148438 2.671875 -5.328125 C 2.203125 -5.515625 1.800781 -5.796875 1.46875 -6.171875 C 1.132812 -6.554688 0.96875 -7.078125 0.96875 -7.734375 C 0.96875 -8.265625 1.109375 -8.75 1.390625 -9.1875 C 1.671875 -9.625 2.097656 -9.972656 2.671875 -10.234375 C 3.253906 -10.492188 3.976562 -10.625 4.84375 -10.625 C 5.445312 -10.625 6.035156 -10.539062 6.609375 -10.375 C 7.191406 -10.207031 7.691406 -9.976562 8.109375 -9.6875 L 7.734375 -8.796875 C 7.296875 -9.085938 6.820312 -9.304688 6.3125 -9.453125 C 5.8125 -9.597656 5.320312 -9.671875 4.84375 -9.671875 C 3.914062 -9.671875 3.21875 -9.492188 2.75 -9.140625 C 2.289062 -8.785156 2.0625 -8.328125 2.0625 -7.765625 C 2.0625 -7.335938 2.1875 -6.992188 2.4375 -6.734375 C 2.695312 -6.484375 3.019531 -6.289062 3.40625 -6.15625 C 3.789062 -6.019531 4.3125 -5.875 4.96875 -5.71875 C 5.738281 -5.53125 6.359375 -5.34375 6.828125 -5.15625 C 7.304688 -4.96875 7.710938 -4.6875 8.046875 -4.3125 C 8.378906 -3.9375 8.546875 -3.425781 8.546875 -2.78125 C 8.546875 -2.25 8.398438 -1.765625 8.109375 -1.328125 C 7.828125 -0.890625 7.390625 -0.539062 6.796875 -0.28125 C 6.203125 -0.03125 5.476562 0.09375 4.625 0.09375 Z M 4.625 0.09375 "/></g></g></g><g fill="#ffffff" fill-opacity="1"><g transform="translate(243.824472, 93.685578)"><g/></g></g><g fill="#ffffff" fill-opacity="1"><g transform="translate(257.082866, 93.685578)"><g><path d="M 6.296875 0.09375 C 5.242188 0.09375 4.300781 -0.132812 3.46875 -0.59375 C 2.632812 -1.0625 1.976562 -1.703125 1.5 -2.515625 C 1.019531 -3.335938 0.78125 -4.253906 0.78125 -5.265625 C 0.78125 -6.273438 1.019531 -7.1875 1.5 -8 C 1.976562 -8.820312 2.632812 -9.460938 3.46875 -9.921875 C 4.3125 -10.390625 5.253906 -10.625 6.296875 -10.625 C 7.085938 -10.625 7.8125 -10.492188 8.46875 -10.234375 C 9.132812 -9.972656 9.695312 -9.59375 10.15625 -9.09375 L 9.453125 -8.375 C 8.628906 -9.207031 7.585938 -9.625 6.328125 -9.625 C 5.492188 -9.625 4.738281 -9.429688 4.0625 -9.046875 C 3.382812 -8.671875 2.847656 -8.148438 2.453125 -7.484375 C 2.066406 -6.828125 1.875 -6.085938 1.875 -5.265625 C 1.875 -4.441406 2.066406 -3.695312 2.453125 -3.03125 C 2.847656 -2.375 3.382812 -1.851562 4.0625 -1.46875 C 4.738281 -1.09375 5.492188 -0.90625 6.328125 -0.90625 C 7.597656 -0.90625 8.640625 -1.328125 9.453125 -2.171875 L 10.15625 -1.453125 C 9.695312 -0.953125 9.132812 -0.566406 8.46875 -0.296875 C 7.800781 -0.0351562 7.078125 0.09375 6.296875 0.09375 Z M 6.296875 0.09375 "/></g></g></g><g fill="#ffffff" fill-opacity="1"><g transform="translate(277.215895, 93.685578)"><g><path d="M 9.15625 -0.96875 L 9.15625 0 L 1.71875 0 L 1.71875 -10.53125 L 8.9375 -10.53125 L 8.9375 -9.5625 L 2.828125 -9.5625 L 2.828125 -5.828125 L 8.28125 -5.828125 L 8.28125 -4.875 L 2.828125 -4.875 L 2.828125 -0.96875 Z M 9.15625 -0.96875 "/></g></g></g><g fill="#ffffff" fill-opacity="1"><g transform="translate(296.596764, 93.685578)"><g><path d="M 10.515625 -10.53125 L 10.515625 0 L 9.59375 0 L 2.828125 -8.546875 L 2.828125 0 L 1.71875 0 L 1.71875 -10.53125 L 2.640625 -10.53125 L 9.421875 -1.984375 L 9.421875 -10.53125 Z M 10.515625 -10.53125 "/></g></g></g><g fill="#ffffff" fill-opacity="1"><g transform="translate(318.143828, 93.685578)"><g><path d="M 3.765625 -9.5625 L 0.0625 -9.5625 L 0.0625 -10.53125 L 8.578125 -10.53125 L 8.578125 -9.5625 L 4.875 -9.5625 L 4.875 0 L 3.765625 0 Z M 3.765625 -9.5625 "/></g></g></g><g fill="#ffffff" fill-opacity="1"><g transform="translate(336.09561, 93.685578)"><g><path d="M 9.15625 -0.96875 L 9.15625 0 L 1.71875 0 L 1.71875 -10.53125 L 8.9375 -10.53125 L 8.9375 -9.5625 L 2.828125 -9.5625 L 2.828125 -5.828125 L 8.28125 -5.828125 L 8.28125 -4.875 L 2.828125 -4.875 L 2.828125 -0.96875 Z M 9.15625 -0.96875 "/></g></g></g><g fill="#ffffff" fill-opacity="1"><g transform="translate(355.47648, 93.685578)"><g><path d="M 8.90625 0 L 6.5 -3.390625 C 6.226562 -3.359375 5.945312 -3.34375 5.65625 -3.34375 L 2.828125 -3.34375 L 2.828125 0 L 1.71875 0 L 1.71875 -10.53125 L 5.65625 -10.53125 C 7 -10.53125 8.050781 -10.207031 8.8125 -9.5625 C 9.582031 -8.925781 9.96875 -8.046875 9.96875 -6.921875 C 9.96875 -6.097656 9.757812 -5.398438 9.34375 -4.828125 C 8.925781 -4.265625 8.328125 -3.859375 7.546875 -3.609375 L 10.125 0 Z M 5.625 -4.28125 C 6.664062 -4.28125 7.460938 -4.507812 8.015625 -4.96875 C 8.566406 -5.4375 8.84375 -6.085938 8.84375 -6.921875 C 8.84375 -7.773438 8.566406 -8.425781 8.015625 -8.875 C 7.460938 -9.332031 6.664062 -9.5625 5.625 -9.5625 L 2.828125 -9.5625 L 2.828125 -4.28125 Z M 5.625 -4.28125 "/></g></g></g><g fill="#ffffff" fill-opacity="1"><g transform="translate(112.414355, 65.282355)"><g><path d="M 8.960938 0.425781 C 9.5625 0.222656 9.675781 -0.0898438 9.316406 -0.582031 C 8.804688 -1.25 8.511719 -2.726562 8.421875 -5.207031 C 8.332031 -7.417969 8.578125 -11.015625 8.914062 -13.359375 C 9.003906 -14.054688 9.160156 -14.632812 9.070312 -15.304688 C 9.027344 -15.617188 8.421875 -15.953125 7.910156 -15.953125 L 7.929688 -15.953125 C 7.148438 -15.996094 6.792969 -15.796875 6.324219 -15.015625 C 4.804688 -12.421875 3.238281 -9.203125 2.054688 -6.523438 C 2.03125 -6.480469 2.03125 -6.433594 2.011719 -6.390625 L 1.988281 -6.390625 C 1.453125 -6.433594 0.917969 -6.390625 0.425781 -6.300781 L 0.378906 -6.300781 C 0.289062 -6.253906 -0.113281 -6.210938 -0.199219 -5.988281 C -0.289062 -5.765625 -0.199219 -5.675781 0.179688 -5.453125 L 0.199219 -5.453125 C 0.492188 -5.296875 0.984375 -5.207031 1.386719 -5.25 L 1.40625 -5.25 C 1.363281 -5.207031 1.316406 -5.140625 1.296875 -5.070312 C 0.804688 -4.089844 0.359375 -3.171875 -0.0429688 -2.277344 C -0.335938 -1.632812 -0.582031 -1.003906 -0.871094 -0.492188 C -1.117188 -0.0664062 -1.003906 0.15625 -0.445312 0.335938 C -0.0234375 0.46875 0.648438 0.289062 0.804688 -0.0234375 C 1.652344 -1.808594 2.414062 -3.394531 3.148438 -5.027344 C 3.261719 -5.296875 3.238281 -5.296875 3.394531 -5.296875 C 4.445312 -5.296875 5.453125 -5.429688 6.480469 -5.40625 C 6.679688 -5.40625 6.679688 -5.382812 6.703125 -4.738281 C 6.8125 -2.347656 7.128906 -0.917969 7.773438 0 C 8 0.3125 8.601562 0.535156 8.960938 0.425781 Z M 3.820312 -6.480469 C 3.820312 -6.5 3.84375 -6.546875 3.863281 -6.613281 C 4.804688 -8.511719 5.585938 -10.164062 6.234375 -11.574219 C 6.523438 -12.199219 6.859375 -12.78125 7.128906 -13.160156 C 6.726562 -11.148438 6.703125 -8.914062 6.613281 -7.304688 C 6.613281 -7.304688 6.546875 -6.613281 6.570312 -6.613281 C 5.675781 -6.613281 4.667969 -6.5 3.820312 -6.480469 Z M 3.820312 -6.480469 "/></g></g></g><g fill="#ffffff" fill-opacity="1"><g transform="translate(127.87488, 65.282355)"><g><path d="M 10.523438 -14.925781 L 10.5 -14.925781 C 9.742188 -15.082031 9.785156 -14.589844 9.742188 -14.433594 C 8.9375 -12.042969 8.601562 -10.03125 8.175781 -7.617188 C 7.953125 -6.324219 7.976562 -4.9375 7.394531 -3.84375 C 6.480469 -2.101562 5.40625 -1.050781 4.15625 -0.738281 C 3.082031 -0.46875 2.390625 -0.894531 2.210938 -1.921875 C 1.832031 -4.066406 3.308594 -10.1875 3.464844 -10.878906 C 3.730469 -12.175781 4.023438 -13.425781 4.132812 -14.679688 C 4.179688 -15.214844 3.863281 -15.503906 3.238281 -15.574219 C 2.703125 -15.660156 2.414062 -15.417969 2.324219 -14.902344 C 2.054688 -13.292969 1.71875 -11.773438 1.386719 -10.253906 C 0.9375 -8.089844 0.46875 -6.1875 0.335938 -4 C 0.335938 -3.308594 0.289062 -2.613281 0.445312 -1.921875 C 0.828125 -0.359375 2.570312 0.691406 4.355469 0.46875 C 5.941406 0.269531 6.859375 -0.601562 7.441406 -1.074219 L 7.910156 -1.496094 C 8.042969 -1.160156 8.222656 -0.738281 8.421875 -0.445312 C 8.714844 0 9.183594 0.3125 9.742188 0.46875 C 10.097656 0.601562 10.613281 0.46875 10.722656 0.199219 C 10.859375 -0.113281 10.769531 -0.179688 10.253906 -0.402344 C 10.1875 -0.402344 10.121094 -0.558594 9.921875 -0.828125 C 9.652344 -1.25 9.472656 -2.300781 9.496094 -3.417969 C 9.539062 -4.558594 9.71875 -5.699219 9.898438 -6.792969 C 10.234375 -8.9375 10.636719 -10.566406 11.105469 -12.601562 C 11.214844 -13.136719 11.304688 -13.628906 11.394531 -14.097656 C 11.4375 -14.523438 11.148438 -14.769531 10.523438 -14.925781 Z M 10.523438 -14.925781 "/></g></g></g><g fill="#ffffff" fill-opacity="1"><g transform="translate(144.318395, 65.282355)"><g><path d="M 12.289062 -6.589844 C 12.511719 -7.640625 11.910156 -8.132812 10.746094 -7.953125 C 9.808594 -7.796875 8.960938 -7.640625 8.042969 -7.773438 L 8.019531 -7.773438 C 7.417969 -7.84375 7.105469 -7.6875 7.082031 -7.371094 L 7.082031 -7.394531 C 7.015625 -7.039062 7.285156 -6.859375 7.929688 -6.746094 C 8.667969 -6.636719 9.472656 -6.523438 10.300781 -6.636719 C 10.367188 -6.480469 9.785156 -5.183594 9.652344 -4.804688 C 9.003906 -2.835938 7.53125 -1.296875 5.898438 -0.804688 C 4.265625 -0.3125 2.972656 -1.273438 2.390625 -3.375 C 1.742188 -5.785156 1.898438 -7.507812 2.992188 -10.054688 C 3.886719 -12.175781 4.847656 -13.339844 6.546875 -14.410156 C 7.058594 -14.722656 7.796875 -15.035156 8.15625 -15.082031 C 9.226562 -15.214844 9.808594 -14.566406 9.539062 -13.585938 C 9.40625 -13.046875 9.273438 -12.667969 9.117188 -12.421875 C 8.824219 -12.042969 8.824219 -12.066406 9.027344 -11.863281 L 9.003906 -11.863281 C 9.160156 -11.683594 9.628906 -11.664062 10.097656 -11.886719 C 11.171875 -12.332031 11.664062 -14.007812 10.949219 -14.96875 C 10.234375 -15.953125 8.824219 -16.421875 7.371094 -16.175781 C 5.699219 -15.886719 4.222656 -14.945312 2.992188 -13.382812 C -0.0664062 -9.449219 -1.585938 -2.703125 3.128906 0.0664062 C 4.421875 0.847656 6.144531 0.804688 7.773438 -0.0664062 C 8.332031 -0.359375 8.847656 -0.691406 9.203125 -1.003906 C 9.203125 -0.738281 9.203125 -0.46875 9.25 -0.199219 C 9.382812 0.804688 9.628906 1.25 10.300781 1.699219 C 10.589844 1.898438 10.992188 1.921875 11.171875 1.789062 L 11.214844 1.765625 C 11.484375 1.496094 11.507812 1.386719 11.351562 1.074219 C 10.8125 -0.0234375 11.171875 -1.296875 11.304688 -2.433594 C 11.460938 -3.910156 12.042969 -5.226562 12.289062 -6.589844 Z M 12.289062 -6.589844 "/></g></g></g><g fill="#ffffff" fill-opacity="1"><g transform="translate(161.923623, 65.282355)"><g><path d="M 13.382812 -14.992188 C 12.488281 -15.214844 11.664062 -14.277344 10.433594 -11.863281 C 9.5625 -10.144531 8.355469 -7.84375 7.597656 -6.34375 L 7.617188 -6.34375 L 7.460938 -6.121094 C 7.441406 -6.1875 7.441406 -6.253906 7.441406 -6.34375 L 7.441406 -6.367188 C 7.261719 -7.53125 7.105469 -9.226562 6.949219 -10.480469 C 6.746094 -11.953125 6.792969 -13.515625 6.390625 -15.125 L 6.367188 -15.125 C 6.210938 -15.550781 5.988281 -15.707031 5.472656 -15.730469 C 4.9375 -15.773438 4.535156 -15.59375 4.445312 -15.261719 C 3.238281 -11.664062 1.789062 -7.820312 0.671875 -4.289062 C 0.269531 -2.972656 -0.199219 -1.585938 -0.535156 -0.378906 C -0.648438 0.113281 -0.425781 0.378906 0.179688 0.445312 C 0.894531 0.515625 1.003906 0.222656 1.09375 -0.0898438 C 1.609375 -1.855469 2.210938 -3.640625 2.769531 -5.273438 C 3.53125 -7.460938 4.222656 -9.964844 5.027344 -12.085938 C 5.050781 -11.082031 5.226562 -9.292969 5.382812 -7.015625 C 5.429688 -6.210938 5.652344 -5.40625 5.921875 -4.511719 C 6.121094 -3.730469 7.394531 -3.507812 8.089844 -4.066406 C 8.421875 -4.3125 8.558594 -4.492188 8.757812 -4.914062 C 9.363281 -6.1875 11.59375 -11.035156 12.578125 -12.625 C 12.535156 -12.445312 12.535156 -12.199219 12.421875 -11.753906 C 11.820312 -9.292969 11.484375 -7.328125 11.351562 -3.976562 C 11.328125 -2.882812 11.351562 -1.25 11.664062 0.0664062 C 11.796875 0.558594 12.578125 1.050781 13.160156 0.984375 L 13.203125 0.984375 C 13.851562 0.847656 13.984375 0.671875 13.785156 0.222656 C 13.5625 -0.222656 13.25 -0.359375 13.113281 -2.90625 C 12.980469 -5.429688 13.539062 -8.3125 14.320312 -12.691406 C 14.542969 -13.898438 14.230469 -14.789062 13.382812 -14.992188 Z M 13.382812 -14.992188 "/></g></g></g><g fill="#ffffff" fill-opacity="1"><g transform="translate(181.561858, 65.282355)"><g><path d="M 0.894531 0.582031 C 3.730469 0.0664062 5.296875 0.15625 6.746094 0.132812 C 7.730469 0.113281 8.890625 0.46875 9.808594 0.0898438 C 10.234375 -0.113281 10.320312 -0.246094 10.277344 -0.691406 L 10.277344 -0.671875 C 10.277344 -0.9375 10.078125 -1.050781 9.5625 -1.117188 C 7.707031 -1.316406 4.199219 -1.273438 2.257812 -1.027344 C 2.234375 -1.027344 2.210938 -1.074219 2.277344 -1.453125 C 2.523438 -3.195312 3.082031 -4.804688 3.351562 -6.480469 C 3.550781 -7.730469 3.507812 -7.6875 4.355469 -7.664062 C 5.609375 -7.617188 6.546875 -7.773438 7.707031 -7.886719 L 7.730469 -7.886719 C 8.222656 -7.976562 8.511719 -8.132812 8.578125 -8.378906 L 8.601562 -8.421875 C 8.625 -8.804688 8.378906 -8.871094 8.109375 -9.027344 L 8.066406 -9.027344 C 7.84375 -9.136719 7.507812 -9.203125 7.148438 -9.203125 L 7.128906 -9.203125 C 5.898438 -9.136719 5.09375 -9.046875 3.886719 -9.003906 C 3.730469 -9.003906 3.777344 -8.9375 3.796875 -9.160156 C 4.023438 -10.792969 4.335938 -12.242188 4.46875 -13.851562 C 4.492188 -14.144531 4.492188 -14.164062 4.625 -14.210938 C 5.273438 -14.386719 6.5 -14.410156 7.238281 -14.457031 C 7.910156 -14.5 9.628906 -14.367188 10.320312 -14.367188 C 10.703125 -14.367188 10.96875 -14.410156 11.105469 -14.476562 C 11.484375 -14.632812 11.617188 -14.722656 11.617188 -14.925781 L 11.617188 -14.945312 C 11.574219 -15.148438 11.59375 -15.4375 11.035156 -15.574219 L 11.082031 -15.574219 C 10.949219 -15.617188 10.636719 -15.730469 10.34375 -15.730469 C 7.976562 -15.730469 5.765625 -15.660156 3.753906 -15.527344 C 2.726562 -15.4375 2.011719 -15.238281 1.988281 -14.96875 C 1.898438 -13.652344 2.949219 -14.835938 2.859375 -13.898438 C 2.523438 -10.457031 1.160156 -5.316406 0.46875 -1.453125 C 0.425781 -0.917969 0.246094 -0.78125 0.402344 -0.804688 C -0.132812 -0.714844 -0.402344 -0.46875 -0.3125 -0.0664062 C -0.15625 0.445312 0.3125 0.691406 0.894531 0.582031 Z M 0.894531 0.582031 "/></g></g></g><g fill="#ffffff" fill-opacity="1"><g transform="translate(197.446855, 65.282355)"><g><path d="M 12.511719 -15.261719 L 12.535156 -15.238281 C 12.445312 -15.460938 12.085938 -15.683594 11.796875 -15.640625 L 11.753906 -15.640625 C 11.417969 -15.550781 11.351562 -15.484375 11.351562 -15.125 C 11.351562 -12.421875 11.015625 -9.5625 10.390625 -7.015625 C 9.898438 -4.914062 9.449219 -2.949219 8.402344 -1.230469 C 8.042969 -0.625 7.976562 -0.535156 7.886719 -0.558594 C 7.730469 -0.582031 7.574219 -0.828125 7.351562 -1.386719 L 7.328125 -1.40625 L 7.285156 -1.496094 C 6.859375 -2.480469 6.792969 -3.664062 6.65625 -4.824219 C 6.390625 -7.105469 6.167969 -9.628906 5.855469 -11.976562 C 5.742188 -12.757812 5.652344 -13.539062 5.519531 -14.386719 C 5.472656 -14.769531 5.027344 -15.035156 4.46875 -15.035156 C 3.933594 -15.035156 3.6875 -14.8125 3.621094 -14.367188 C 3.507812 -13.628906 3.351562 -12.980469 3.21875 -12.445312 C 2.769531 -10.878906 2.324219 -9.070312 1.855469 -7.105469 C 1.25 -4.714844 0.738281 -2.324219 0.15625 -0.0234375 C 0.0664062 0.378906 0.199219 0.582031 0.691406 0.757812 C 1.117188 0.917969 1.632812 0.738281 1.742188 0.402344 C 1.875 0.0664062 2.011719 -0.246094 2.078125 -0.492188 C 2.546875 -2.367188 2.90625 -4.199219 3.394531 -5.941406 C 3.730469 -7.058594 4.023438 -8.265625 4.3125 -9.429688 C 4.3125 -9.292969 4.335938 -9.183594 4.335938 -9.070312 C 4.445312 -7.015625 4.78125 -4.980469 5.160156 -2.949219 C 5.429688 -1.5625 5.785156 -0.804688 6.546875 -0.0898438 C 7.441406 0.804688 8.871094 0.738281 9.652344 -0.222656 C 10.164062 -0.894531 10.679688 -1.496094 10.902344 -2.167969 C 12.175781 -5.742188 12.691406 -9.605469 12.871094 -13.40625 C 12.914062 -14.300781 12.871094 -14.613281 12.511719 -15.261719 Z M 12.511719 -15.261719 "/></g></g></g><g fill="#ffffff" fill-opacity="1"><g transform="translate(215.610607, 65.282355)"><g><path d="M 3.171875 0.601562 C 3.976562 0.648438 4 0.113281 4.042969 -0.15625 C 4.15625 -0.894531 4.199219 -1.609375 4.335938 -2.257812 L 6.546875 -13.652344 L 6.523438 -13.628906 C 6.570312 -13.785156 6.546875 -13.828125 6.5 -13.828125 C 7.285156 -13.898438 8.066406 -13.917969 8.847656 -13.917969 C 9.585938 -13.917969 10.320312 -13.941406 11.058594 -13.941406 C 11.527344 -13.941406 11.910156 -14.164062 11.953125 -14.476562 C 11.996094 -14.835938 11.839844 -14.925781 11.28125 -15.101562 C 10.703125 -15.28125 10.007812 -15.28125 9.40625 -15.304688 L 9.382812 -15.304688 C 7.617188 -15.304688 5.808594 -15.304688 4.042969 -15.171875 C 2.925781 -15.082031 1.832031 -15.082031 0.738281 -14.992188 L 0.757812 -14.992188 C 0.246094 -14.992188 0.0234375 -14.859375 0.15625 -14.523438 C 0.3125 -14.144531 0.625 -13.539062 1.496094 -13.605469 C 2.121094 -13.628906 4.265625 -13.671875 4.691406 -13.742188 C 4.847656 -13.761719 4.804688 -13.761719 4.738281 -13.382812 C 4.246094 -10.835938 3.597656 -7.976562 3.0625 -5.496094 C 2.726562 -3.753906 2.503906 -2.03125 2.191406 -0.378906 C 2.121094 0.199219 2.457031 0.535156 3.171875 0.601562 Z M 3.171875 0.601562 "/></g></g></g><g fill="#ffffff" fill-opacity="1"><g transform="translate(229.931764, 65.282355)"><g><path d="M 0.894531 0.582031 C 3.730469 0.0664062 5.296875 0.15625 6.746094 0.132812 C 7.730469 0.113281 8.890625 0.46875 9.808594 0.0898438 C 10.234375 -0.113281 10.320312 -0.246094 10.277344 -0.691406 L 10.277344 -0.671875 C 10.277344 -0.9375 10.078125 -1.050781 9.5625 -1.117188 C 7.707031 -1.316406 4.199219 -1.273438 2.257812 -1.027344 C 2.234375 -1.027344 2.210938 -1.074219 2.277344 -1.453125 C 2.523438 -3.195312 3.082031 -4.804688 3.351562 -6.480469 C 3.550781 -7.730469 3.507812 -7.6875 4.355469 -7.664062 C 5.609375 -7.617188 6.546875 -7.773438 7.707031 -7.886719 L 7.730469 -7.886719 C 8.222656 -7.976562 8.511719 -8.132812 8.578125 -8.378906 L 8.601562 -8.421875 C 8.625 -8.804688 8.378906 -8.871094 8.109375 -9.027344 L 8.066406 -9.027344 C 7.84375 -9.136719 7.507812 -9.203125 7.148438 -9.203125 L 7.128906 -9.203125 C 5.898438 -9.136719 5.09375 -9.046875 3.886719 -9.003906 C 3.730469 -9.003906 3.777344 -8.9375 3.796875 -9.160156 C 4.023438 -10.792969 4.335938 -12.242188 4.46875 -13.851562 C 4.492188 -14.144531 4.492188 -14.164062 4.625 -14.210938 C 5.273438 -14.386719 6.5 -14.410156 7.238281 -14.457031 C 7.910156 -14.5 9.628906 -14.367188 10.320312 -14.367188 C 10.703125 -14.367188 10.96875 -14.410156 11.105469 -14.476562 C 11.484375 -14.632812 11.617188 -14.722656 11.617188 -14.925781 L 11.617188 -14.945312 C 11.574219 -15.148438 11.59375 -15.4375 11.035156 -15.574219 L 11.082031 -15.574219 C 10.949219 -15.617188 10.636719 -15.730469 10.34375 -15.730469 C 7.976562 -15.730469 5.765625 -15.660156 3.753906 -15.527344 C 2.726562 -15.4375 2.011719 -15.238281 1.988281 -14.96875 C 1.898438 -13.652344 2.949219 -14.835938 2.859375 -13.898438 C 2.523438 -10.457031 1.160156 -5.316406 0.46875 -1.453125 C 0.425781 -0.917969 0.246094 -0.78125 0.402344 -0.804688 C -0.132812 -0.714844 -0.402344 -0.46875 -0.3125 -0.0664062 C -0.15625 0.445312 0.3125 0.691406 0.894531 0.582031 Z M 0.894531 0.582031 "/></g></g></g><g fill="#ffffff" fill-opacity="1"><g transform="translate(245.816762, 65.282355)"><g><path d="M 8.535156 -15.304688 C 6.210938 -16.132812 4 -16.175781 1.71875 -15.773438 C 0.425781 -15.550781 -0.0664062 -15.101562 0.492188 -14.542969 C 0.847656 -14.1875 1.027344 -14.1875 2.03125 -14.476562 C 4.023438 -15.082031 5.742188 -15.035156 8 -14.277344 C 9.898438 -13.671875 10.96875 -12.222656 10.96875 -10.277344 C 10.96875 -7.015625 8.9375 -3.53125 6.300781 -2.210938 C 3.863281 -1.027344 2.078125 -0.871094 1.898438 -1.003906 L 1.921875 -1.003906 L 2.078125 -1.519531 C 2.816406 -4.757812 3.308594 -7.460938 4 -11.082031 C 4.15625 -11.929688 4.289062 -12.535156 4.402344 -13.292969 C 4.492188 -13.851562 3.953125 -14.320312 3.308594 -14.320312 L 3.328125 -14.320312 C 2.347656 -14.367188 2.679688 -13.742188 2.636719 -13.539062 L 2.636719 -13.40625 L 2.613281 -13.382812 C 2.324219 -10.949219 1.585938 -8.871094 1.230469 -6.5 C 1.003906 -4.914062 0.359375 -2.925781 0.113281 -0.492188 C 0.0664062 0.0429688 0.46875 0.335938 1.230469 0.335938 C 2.972656 0.335938 4.625 0.0234375 5.898438 -0.515625 C 7.664062 -1.296875 9.046875 -1.832031 10.5 -3.707031 C 11.953125 -5.585938 12.398438 -6.703125 12.644531 -8.960938 C 12.980469 -12.042969 11.574219 -14.1875 8.535156 -15.304688 Z M 8.535156 -15.304688 "/></g></g></g><g fill="#ffffff" fill-opacity="1"><g transform="translate(263.556044, 65.282355)"><g/></g></g><g fill="#ffffff" fill-opacity="1"><g transform="translate(271.845219, 65.282355)"><g><path d="M 9.695312 -0.847656 C 8.535156 -0.648438 7.460938 -1.742188 6.835938 -2.636719 C 5.71875 -4.132812 5.117188 -5.316406 4.78125 -6.8125 C 4.738281 -6.902344 4.691406 -6.925781 4.667969 -6.925781 C 4.667969 -6.925781 4.714844 -6.925781 4.78125 -6.949219 C 5.363281 -7.148438 5.71875 -7.261719 6.144531 -7.371094 C 8.558594 -8.042969 9.652344 -8.804688 10.480469 -10.410156 C 11.996094 -13.382812 9.832031 -15.953125 5.941406 -15.953125 C 4.804688 -15.953125 4.445312 -15.886719 3.6875 -15.839844 C 2.769531 -15.773438 2.101562 -15.640625 1.609375 -15.394531 L 1.585938 -15.394531 C 1.40625 -15.28125 0.847656 -15.191406 1.117188 -14.769531 C 1.273438 -14.457031 1.742188 -14.253906 2.167969 -14.34375 L 2.191406 -14.34375 C 2.433594 -14.410156 2.660156 -14.476562 2.835938 -14.5 C 2.816406 -14.476562 2.816406 -14.410156 2.792969 -14.300781 C 2.503906 -12.890625 2.191406 -11.28125 1.898438 -9.988281 C 1.363281 -7.53125 0.847656 -4.960938 0.359375 -2.277344 C 0.246094 -1.609375 0.113281 -0.871094 0.113281 -0.199219 C 0.113281 0.0234375 0.359375 0.199219 0.78125 0.359375 C 1.074219 0.46875 1.496094 0.335938 1.675781 0.0429688 C 1.855469 -0.269531 1.945312 -0.46875 1.964844 -0.671875 C 2.167969 -2.660156 2.679688 -4.691406 3.015625 -6.570312 L 3.015625 -6.589844 C 3.195312 -5.898438 3.308594 -5.003906 4.78125 -2.589844 C 5.273438 -1.808594 6.5 -0.378906 8.222656 0.222656 C 8.734375 0.378906 9.605469 0.378906 9.988281 0.179688 C 10.878906 -0.289062 10.703125 -1.050781 9.695312 -0.847656 Z M 3.261719 -7.820312 C 3.285156 -7.910156 3.328125 -8 3.351562 -8.15625 C 3.707031 -9.832031 4.179688 -11.707031 4.46875 -13.269531 C 4.535156 -13.605469 4.625 -13.851562 4.492188 -14.121094 C 4.402344 -14.277344 3.464844 -14.613281 4.492188 -14.703125 C 7.082031 -15.171875 9.449219 -14.300781 9.25 -12.625 C 9.070312 -10.902344 8.15625 -9.652344 6.589844 -8.914062 C 5.765625 -8.535156 4.738281 -8.199219 3.351562 -7.863281 C 3.308594 -7.863281 3.285156 -7.84375 3.261719 -7.820312 Z M 2.925781 -14.523438 C 2.925781 -14.523438 2.925781 -14.523438 2.90625 -14.523438 Z M 2.925781 -14.523438 "/></g></g></g><g fill="#ffffff" fill-opacity="1"><g transform="translate(287.663205, 65.282355)"><g><path d="M 0.894531 0.582031 C 3.730469 0.0664062 5.296875 0.15625 6.746094 0.132812 C 7.730469 0.113281 8.890625 0.46875 9.808594 0.0898438 C 10.234375 -0.113281 10.320312 -0.246094 10.277344 -0.691406 L 10.277344 -0.671875 C 10.277344 -0.9375 10.078125 -1.050781 9.5625 -1.117188 C 7.707031 -1.316406 4.199219 -1.273438 2.257812 -1.027344 C 2.234375 -1.027344 2.210938 -1.074219 2.277344 -1.453125 C 2.523438 -3.195312 3.082031 -4.804688 3.351562 -6.480469 C 3.550781 -7.730469 3.507812 -7.6875 4.355469 -7.664062 C 5.609375 -7.617188 6.546875 -7.773438 7.707031 -7.886719 L 7.730469 -7.886719 C 8.222656 -7.976562 8.511719 -8.132812 8.578125 -8.378906 L 8.601562 -8.421875 C 8.625 -8.804688 8.378906 -8.871094 8.109375 -9.027344 L 8.066406 -9.027344 C 7.84375 -9.136719 7.507812 -9.203125 7.148438 -9.203125 L 7.128906 -9.203125 C 5.898438 -9.136719 5.09375 -9.046875 3.886719 -9.003906 C 3.730469 -9.003906 3.777344 -8.9375 3.796875 -9.160156 C 4.023438 -10.792969 4.335938 -12.242188 4.46875 -13.851562 C 4.492188 -14.144531 4.492188 -14.164062 4.625 -14.210938 C 5.273438 -14.386719 6.5 -14.410156 7.238281 -14.457031 C 7.910156 -14.5 9.628906 -14.367188 10.320312 -14.367188 C 10.703125 -14.367188 10.96875 -14.410156 11.105469 -14.476562 C 11.484375 -14.632812 11.617188 -14.722656 11.617188 -14.925781 L 11.617188 -14.945312 C 11.574219 -15.148438 11.59375 -15.4375 11.035156 -15.574219 L 11.082031 -15.574219 C 10.949219 -15.617188 10.636719 -15.730469 10.34375 -15.730469 C 7.976562 -15.730469 5.765625 -15.660156 3.753906 -15.527344 C 2.726562 -15.4375 2.011719 -15.238281 1.988281 -14.96875 C 1.898438 -13.652344 2.949219 -14.835938 2.859375 -13.898438 C 2.523438 -10.457031 1.160156 -5.316406 0.46875 -1.453125 C 0.425781 -0.917969 0.246094 -0.78125 0.402344 -0.804688 C -0.132812 -0.714844 -0.402344 -0.46875 -0.3125 -0.0664062 C -0.15625 0.445312 0.3125 0.691406 0.894531 0.582031 Z M 0.894531 0.582031 "/></g></g></g><g fill="#ffffff" fill-opacity="1"><g transform="translate(303.548202, 65.282355)"><g><path d="M 8.960938 0.425781 C 9.5625 0.222656 9.675781 -0.0898438 9.316406 -0.582031 C 8.804688 -1.25 8.511719 -2.726562 8.421875 -5.207031 C 8.332031 -7.417969 8.578125 -11.015625 8.914062 -13.359375 C 9.003906 -14.054688 9.160156 -14.632812 9.070312 -15.304688 C 9.027344 -15.617188 8.421875 -15.953125 7.910156 -15.953125 L 7.929688 -15.953125 C 7.148438 -15.996094 6.792969 -15.796875 6.324219 -15.015625 C 4.804688 -12.421875 3.238281 -9.203125 2.054688 -6.523438 C 2.03125 -6.480469 2.03125 -6.433594 2.011719 -6.390625 L 1.988281 -6.390625 C 1.453125 -6.433594 0.917969 -6.390625 0.425781 -6.300781 L 0.378906 -6.300781 C 0.289062 -6.253906 -0.113281 -6.210938 -0.199219 -5.988281 C -0.289062 -5.765625 -0.199219 -5.675781 0.179688 -5.453125 L 0.199219 -5.453125 C 0.492188 -5.296875 0.984375 -5.207031 1.386719 -5.25 L 1.40625 -5.25 C 1.363281 -5.207031 1.316406 -5.140625 1.296875 -5.070312 C 0.804688 -4.089844 0.359375 -3.171875 -0.0429688 -2.277344 C -0.335938 -1.632812 -0.582031 -1.003906 -0.871094 -0.492188 C -1.117188 -0.0664062 -1.003906 0.15625 -0.445312 0.335938 C -0.0234375 0.46875 0.648438 0.289062 0.804688 -0.0234375 C 1.652344 -1.808594 2.414062 -3.394531 3.148438 -5.027344 C 3.261719 -5.296875 3.238281 -5.296875 3.394531 -5.296875 C 4.445312 -5.296875 5.453125 -5.429688 6.480469 -5.40625 C 6.679688 -5.40625 6.679688 -5.382812 6.703125 -4.738281 C 6.8125 -2.347656 7.128906 -0.917969 7.773438 0 C 8 0.3125 8.601562 0.535156 8.960938 0.425781 Z M 3.820312 -6.480469 C 3.820312 -6.5 3.84375 -6.546875 3.863281 -6.613281 C 4.804688 -8.511719 5.585938 -10.164062 6.234375 -11.574219 C 6.523438 -12.199219 6.859375 -12.78125 7.128906 -13.160156 C 6.726562 -11.148438 6.703125 -8.914062 6.613281 -7.304688 C 6.613281 -7.304688 6.546875 -6.613281 6.570312 -6.613281 C 5.675781 -6.613281 4.667969 -6.5 3.820312 -6.480469 Z M 3.820312 -6.480469 "/></g></g></g><g fill="#ffffff" fill-opacity="1"><g transform="translate(319.00873, 65.282355)"><g><path d="M 8.871094 -0.289062 C 8.824219 -0.828125 7.574219 -1.25 6.144531 -1.25 C 4.601562 -1.25 3.597656 -0.960938 2.144531 -0.714844 C 2.167969 -0.738281 2.167969 -0.757812 2.191406 -0.804688 C 2.769531 -3.148438 3.351562 -5.25 3.84375 -7.550781 C 4.355469 -9.964844 4.757812 -11.929688 5.050781 -14.34375 C 5.070312 -14.703125 5.117188 -14.992188 5.117188 -15.304688 C 5.09375 -15.707031 4.648438 -16.019531 4.132812 -16.019531 C 3.328125 -16.019531 3.464844 -15.59375 3.417969 -15.394531 C 2.949219 -13.046875 2.679688 -11.105469 2.191406 -8.824219 C 1.542969 -5.964844 1.027344 -3.285156 0.179688 -0.558594 C 0.0429688 -0.113281 0.179688 0.113281 0.714844 0.445312 C 0.960938 0.601562 1.472656 0.671875 1.855469 0.558594 C 3.441406 0.0664062 5.09375 -0.0429688 6.972656 0.15625 C 7.417969 0.199219 7.84375 0.222656 8.199219 0.179688 C 8.714844 0.113281 8.890625 0 8.871094 -0.289062 Z M 8.871094 -0.289062 "/></g></g></g><g fill="#ffffff" fill-opacity="1"><g transform="translate(332.92776, 65.282355)"><g><path d="M 9.160156 -15.394531 C 8.960938 -15.59375 8.488281 -15.574219 8.378906 -15.59375 L 8.332031 -15.59375 C 7.304688 -15.59375 6.5 -15.550781 5.875 -15.503906 C 4.492188 -15.417969 3.464844 -15.617188 2.414062 -15.484375 C 1.789062 -15.394531 1.699219 -15.347656 1.675781 -15.101562 C 1.652344 -14.8125 1.765625 -14.65625 2.121094 -14.433594 C 2.613281 -14.144531 3.753906 -14.320312 4.558594 -14.34375 L 4.625 -14.34375 C 4.601562 -14.320312 4.582031 -14.253906 4.558594 -14.144531 C 4.378906 -13.40625 4.289062 -12.667969 4.109375 -12.066406 L 4.089844 -12.042969 C 3.394531 -8.511719 2.703125 -5.003906 2.101562 -1.472656 C 2.078125 -1.363281 2.101562 -1.296875 2.101562 -1.25 L 2.03125 -1.25 C 1.160156 -1.230469 0.269531 -1.160156 -0.558594 -1.117188 C -1.160156 -1.074219 -1.316406 -0.894531 -1.160156 -0.445312 C -0.984375 0.0664062 -0.535156 0.246094 0.445312 0.199219 C 1.296875 0.15625 1.964844 0.0898438 2.792969 0.0898438 C 4.445312 0.0664062 5.472656 0.0234375 6.480469 -0.0234375 C 7.015625 -0.0429688 7.304688 -0.378906 7.285156 -0.894531 C 7.261719 -1.230469 6.972656 -1.386719 6.390625 -1.386719 C 5.742188 -1.386719 4.601562 -1.273438 4 -1.230469 C 3.777344 -1.207031 3.84375 -1.140625 3.910156 -1.542969 C 4.199219 -3.53125 4.601562 -5.207031 4.980469 -7.058594 C 5.453125 -9.472656 5.898438 -11.886719 6.300781 -14.097656 C 6.34375 -14.367188 6.300781 -14.34375 6.480469 -14.367188 C 7.304688 -14.5 8.019531 -14.367188 8.847656 -14.410156 C 9.5625 -14.457031 9.71875 -14.878906 9.160156 -15.394531 Z M 9.160156 -15.394531 "/></g></g></g><g fill="#ffffff" fill-opacity="1"><g transform="translate(346.355281, 65.282355)"><g><path d="M 3.171875 0.601562 C 3.976562 0.648438 4 0.113281 4.042969 -0.15625 C 4.15625 -0.894531 4.199219 -1.609375 4.335938 -2.257812 L 6.546875 -13.652344 L 6.523438 -13.628906 C 6.570312 -13.785156 6.546875 -13.828125 6.5 -13.828125 C 7.285156 -13.898438 8.066406 -13.917969 8.847656 -13.917969 C 9.585938 -13.917969 10.320312 -13.941406 11.058594 -13.941406 C 11.527344 -13.941406 11.910156 -14.164062 11.953125 -14.476562 C 11.996094 -14.835938 11.839844 -14.925781 11.28125 -15.101562 C 10.703125 -15.28125 10.007812 -15.28125 9.40625 -15.304688 L 9.382812 -15.304688 C 7.617188 -15.304688 5.808594 -15.304688 4.042969 -15.171875 C 2.925781 -15.082031 1.832031 -15.082031 0.738281 -14.992188 L 0.757812 -14.992188 C 0.246094 -14.992188 0.0234375 -14.859375 0.15625 -14.523438 C 0.3125 -14.144531 0.625 -13.539062 1.496094 -13.605469 C 2.121094 -13.628906 4.265625 -13.671875 4.691406 -13.742188 C 4.847656 -13.761719 4.804688 -13.761719 4.738281 -13.382812 C 4.246094 -10.835938 3.597656 -7.976562 3.0625 -5.496094 C 2.726562 -3.753906 2.503906 -2.03125 2.191406 -0.378906 C 2.121094 0.199219 2.457031 0.535156 3.171875 0.601562 Z M 3.171875 0.601562 "/></g></g></g><g fill="#ffffff" fill-opacity="1"><g transform="translate(360.676424, 65.282355)"><g><path d="M 9.339844 -15.261719 C 8.578125 -15.660156 8.289062 -14.96875 5.765625 -9.851562 C 5.363281 -9.046875 4.824219 -8 4.667969 -7.441406 L 4.402344 -8.089844 C 3.820312 -9.496094 3.21875 -12.332031 3.285156 -14.1875 C 3.308594 -14.878906 3.0625 -15.261719 2.390625 -15.550781 L 2.367188 -15.574219 C 1.875 -15.730469 1.453125 -15.550781 1.453125 -15.101562 C 1.453125 -11.617188 2.367188 -7.929688 3.707031 -5.921875 C 3.796875 -5.742188 3.796875 -5.628906 3.777344 -5.585938 C 3.53125 -5.050781 3.148438 -4.179688 2.972656 -3.730469 C 2.589844 -2.792969 2.277344 -1.964844 1.855469 -0.46875 L 1.832031 -0.425781 C 1.808594 0.179688 1.921875 0.378906 2.480469 0.535156 L 2.523438 0.535156 C 3.039062 0.601562 3.621094 0.335938 3.730469 -0.0234375 L 3.707031 0 C 3.796875 -0.179688 3.796875 -0.269531 3.820312 -0.335938 C 4.445312 -2.835938 4.824219 -3.953125 5.941406 -6.367188 C 7.058594 -8.804688 8.355469 -11.035156 9.382812 -13.070312 C 9.675781 -13.5625 9.761719 -13.742188 9.875 -14.164062 C 9.988281 -14.566406 9.785156 -15.035156 9.339844 -15.261719 Z M 9.339844 -15.261719 "/></g></g></g></svg>